<svg width="24" height="24" viewBox="0 0 24 24" fill="none" xmlns="http://www.w3.org/2000/svg">
<path d="M18.3779 3.56264L13.2923 3.54983C12.9941 3.54828 12.7083 3.4311 12.4957 3.22323C12.283 3.01537 12.1603 2.73322 12.1537 2.43677L12.1472 2.1553C12.1217 1.1787 12.5993 0.68825 13.5802 0.683985L22.1009 0.664795C23.2268 0.664795 23.7876 1.2256 23.7833 2.3472L23.7514 10.8168C23.7471 11.7081 23.3014 12.222 22.4144 12.3585C21.9666 12.4267 21.5252 12.1708 21.0902 11.5908C20.9284 11.3752 20.8429 11.1119 20.8471 10.8424L20.8983 6.15981C20.9026 5.7632 20.764 5.70347 20.4825 5.98068L16.2285 10.2091C15.9854 10.4479 15.9513 10.7144 16.1261 11.0087C17.5249 13.3713 17.768 15.7595 16.8554 18.1733C13.7721 26.3486 1.89932 24.9349 0.850217 16.1646C0.415223 12.4864 2.44946 9.15359 5.88463 7.68229C8.39224 6.6076 10.9745 6.81014 13.6314 8.28997C13.7977 8.38379 13.9491 8.36462 14.0855 8.23242L18.5058 3.86968C18.5314 3.84463 18.5489 3.81247 18.556 3.77738C18.5631 3.74229 18.5596 3.70587 18.5458 3.67282C18.532 3.63977 18.5087 3.61161 18.4788 3.59196C18.4488 3.57232 18.4137 3.56212 18.3779 3.56264ZM14.4501 15.3394C14.4501 14.6372 14.3118 13.9417 14.0431 13.2929C13.7743 12.6441 13.3804 12.0545 12.8838 11.5579C12.3872 11.0613 11.7976 10.6674 11.1488 10.3987C10.5 10.1299 9.80458 9.99159 9.10228 9.99159C8.39999 9.99159 7.70459 10.1299 7.05575 10.3987C6.40692 10.6674 5.81739 11.0613 5.32079 11.5579C4.8242 12.0545 4.43026 12.6441 4.1615 13.2929C3.89274 13.9417 3.75443 14.6372 3.75443 15.3394C3.75443 16.7578 4.31788 18.1181 5.32079 19.121C6.32371 20.1239 7.68394 20.6873 9.10228 20.6873C10.5206 20.6873 11.8809 20.1239 12.8838 19.121C13.8867 18.1181 14.4501 16.7578 14.4501 15.3394Z" fill="#2F72F3"/>
</svg>
