<svg width="53" height="53" viewBox="0 0 53 53" fill="none" xmlns="http://www.w3.org/2000/svg">
<path d="M27.4942 0C33.9637 0.405141 39.578 2.73577 44.3374 6.99188L45.6871 8.32246C49.0583 12.0327 51.3357 16.2611 52.2185 21.1036C52.4104 22.157 52.6172 23.2466 52.839 24.3724L52.871 28.4473C52.1758 34.6524 49.7919 40.0258 45.7192 44.5677L44.3822 45.9174C39.465 50.1522 33.8336 52.468 27.4878 52.8646C27.121 52.7963 26.7457 52.7984 26.3619 52.8709C19.4233 52.6833 13.4208 50.2866 8.35444 45.6807L6.99188 44.2606C2.62062 39.3819 0.289996 33.6161 0 26.9632L0.0383803 25.9205C0.226025 19.4425 2.54386 13.6533 6.99188 8.55275L8.26487 7.29252C13.3483 2.58435 19.3764 0.159904 26.3491 0.0191706L27.4942 0ZM30.021 27.1743C29.8483 29.7267 28.7736 34.614 24.897 33.3602C23.801 33.0019 23.172 32.0829 23.0099 30.6031C22.9971 30.505 22.9417 30.456 22.8436 30.456L20.8094 30.5071C20.7027 30.5071 20.6516 30.5626 20.6558 30.6735C20.8541 33.2515 22.6133 35.2921 25.2168 35.4328C32.3942 35.8166 32.8548 27.8332 32.1384 22.4533C31.5626 18.1162 27.539 15.3719 23.4449 17.3102C18.7751 19.5172 19.2869 27.5901 24.558 28.6456C26.605 29.0593 28.3258 28.5262 29.7203 27.0464C29.9421 26.8118 30.0423 26.8545 30.021 27.1743Z" fill="#EFDB28"/>
</svg>
