<svg width="552" height="552" viewBox="0 0 552 552" fill="none" xmlns="http://www.w3.org/2000/svg">
<g filter="url(#filter0_d_2402_1395)">
<path d="M545.508 303.088C544.774 309.579 543.757 316.187 542.456 322.913C542.41 323.147 542.471 323.35 542.642 323.52C543.979 324.844 543.41 326.284 541.9 327.045C541.708 327.143 541.589 327.297 541.542 327.506C540.109 334.299 538.446 340.948 536.552 347.451C536.523 347.551 536.524 347.656 536.553 347.756C536.582 347.856 536.64 347.945 536.718 348.014C537.851 349.019 537.78 350.81 536.219 351.347C536.006 351.42 535.797 351.496 535.593 351.577C535.392 351.663 535.26 351.808 535.196 352.012C533.447 357.684 531.443 363.467 529.183 369.361C529.106 369.557 529.132 369.741 529.26 369.911C529.494 370.214 529.716 370.515 529.925 370.813C531.07 372.438 530.085 374.351 528.441 375.118C527.987 375.329 527.52 375.208 527.065 375.336C526.856 375.391 526.711 375.519 526.63 375.72C524.417 381.097 522.022 386.392 519.447 391.603C519.353 391.791 519.359 391.974 519.466 392.153C520.169 393.36 520.031 394.354 519.05 395.134C518.879 395.271 518.685 395.358 518.468 395.397L517.815 395.512C517.568 395.554 517.387 395.687 517.272 395.908C514.073 402.131 510.64 408.216 506.972 414.165C506.862 414.344 506.83 414.536 506.877 414.741C507.017 415.336 507.331 415.925 507.126 416.513C506.776 417.532 506.019 418.038 504.855 418.029C504.642 418.029 504.478 418.119 504.363 418.298C500.929 423.671 497.309 428.906 493.5 434.002C493.368 434.177 493.317 434.371 493.347 434.584C493.564 436.171 493.328 437.713 491.236 437.489C491.001 437.463 490.814 437.542 490.673 437.725C478.165 453.923 464 468.51 448.178 481.487C447.96 481.666 447.879 481.894 447.935 482.172C448.182 483.353 447.66 484.17 446.368 484.622C446.142 484.703 445.916 484.698 445.69 484.609L445.127 484.379C445.023 484.338 444.911 484.325 444.801 484.34C444.691 484.356 444.587 484.4 444.5 484.468C439.199 488.664 433.763 492.652 428.194 496.43C428.015 496.554 427.929 496.723 427.938 496.936C427.985 498.207 427.424 498.917 426.256 499.066C425.699 499.136 425.386 498.925 424.887 498.868C424.673 498.839 424.456 498.889 424.279 499.008C418.863 502.599 413.069 506.081 406.898 509.455C406.795 509.511 406.708 509.593 406.646 509.692C406.585 509.79 406.55 509.903 406.546 510.018C406.5 511.489 405.787 512.235 404.41 512.257C404.177 512.261 403.949 512.191 403.757 512.058C403.544 511.913 403.318 511.807 403.079 511.738C402.907 511.689 402.719 511.71 402.555 511.796C397.177 514.662 391.688 517.334 386.089 519.811C385.884 519.905 385.763 520.061 385.724 520.278C385.673 520.581 385.626 520.875 385.584 521.161C385.315 523.087 383.53 523.989 381.777 523.47C381.221 523.304 380.856 522.882 380.344 522.562C380.165 522.447 379.978 522.432 379.782 522.517C374.442 524.739 369.037 526.778 363.565 528.633C363.309 528.718 363.137 528.842 363.047 529.004C362.97 529.136 362.921 529.281 362.9 529.439C362.708 530.821 360.821 531.396 359.829 530.488C359.736 530.403 359.637 530.322 359.535 530.245C359.365 530.108 359.173 530.074 358.959 530.142C352.264 532.317 345.443 534.222 338.495 535.855C338.394 535.88 338.301 535.932 338.225 536.005C338.149 536.078 338.092 536.169 338.061 536.271C337.698 537.507 336.905 538.009 335.681 537.774C335.067 537.652 334.971 537.397 334.523 537.038C334.357 536.902 334.167 536.857 333.954 536.904C327.655 538.264 321.32 539.42 314.948 540.371C314.739 540.401 314.59 540.514 314.5 540.71C313.963 541.892 313.031 542.243 311.705 541.766C311.509 541.698 311.36 541.572 311.257 541.388C311.172 541.235 311.05 541.118 310.893 541.036C310.773 540.973 310.62 540.953 310.432 540.979C290.141 543.585 269.779 543.89 249.347 541.894C249.113 541.872 248.931 541.962 248.804 542.162L248.612 542.482C248.505 542.657 248.356 542.783 248.164 542.86C246.833 543.405 245.857 543.024 245.234 541.715C245.14 541.523 244.987 541.414 244.773 541.388C238.227 540.651 231.532 539.621 224.687 538.299C224.611 538.285 224.533 538.292 224.46 538.317C224.387 538.343 224.322 538.387 224.271 538.446C223.525 539.303 222.678 539.465 221.732 538.932C221.143 538.593 221.117 538.113 220.708 537.672C220.571 537.522 220.387 537.419 220.184 537.377C213.501 536.008 206.897 534.367 200.372 532.452C200.159 532.392 199.975 532.439 199.822 532.592L199.47 532.951C199.308 533.113 199.114 533.215 198.888 533.258C197.523 533.514 196.685 532.976 196.374 531.646C196.31 531.364 196.139 531.181 195.862 531.096C189.909 529.275 184.092 527.268 178.411 525.076C178.211 524.999 178.03 525.027 177.868 525.159C176.256 526.49 174.49 526.797 173.057 524.871C172.596 524.244 172.724 523.707 172.526 523.01C172.466 522.788 172.33 522.635 172.117 522.549C166.743 520.34 161.455 517.952 156.252 515.385C156.06 515.291 155.864 515.28 155.664 515.353C155.348 515.468 155.035 515.57 154.723 515.66C153.444 516.024 152.446 515.046 152.344 513.798C152.322 513.542 152.199 513.357 151.973 513.242C145.699 510.026 139.571 506.574 133.588 502.885C133.409 502.774 133.212 502.736 132.999 502.77C132.743 502.808 132.494 502.861 132.251 502.93C131.144 503.243 129.98 502.514 129.935 501.33C129.927 501.122 129.884 500.921 129.807 500.729C129.735 500.537 129.611 500.386 129.436 500.275C124.054 496.838 118.809 493.204 113.7 489.375C113.529 489.247 113.337 489.198 113.124 489.227C111.685 489.419 110.354 489.125 110.354 487.315C110.35 487.012 110.228 486.767 109.989 486.579C93.7752 474.028 79.1751 459.863 66.1893 444.084C66.1213 444.002 66.0359 443.937 65.9396 443.892C65.8433 443.848 65.7384 443.826 65.6328 443.828L65.0314 443.835C64.8523 443.839 64.6796 443.8 64.5133 443.719C63.413 443.182 63.0249 442.261 63.349 440.956C63.4002 440.751 63.3618 440.566 63.2339 440.399C59.0162 435.115 55.0351 429.695 51.2907 424.138C51.1799 423.972 51.0285 423.872 50.8366 423.838L50.0561 423.69C49.6475 423.611 49.2849 423.378 49.0433 423.04C48.8016 422.702 48.6994 422.284 48.7575 421.874L48.8919 420.933C48.9217 420.712 48.8748 420.507 48.7511 420.319C44.9983 414.63 41.4927 408.796 38.2345 402.817C38.1322 402.63 37.9765 402.506 37.7676 402.446C37.4904 402.374 37.2131 402.303 36.9359 402.235C35.5222 401.896 35.3111 400.342 35.9316 399.203C36.034 399.015 36.0361 398.828 35.938 398.64C33.0636 393.164 30.3705 387.605 27.8586 381.963C27.7733 381.767 27.6284 381.639 27.4237 381.579C26.9951 381.451 26.6624 381.522 26.2082 381.317C23.7838 380.249 23.8669 378.227 25.1463 376.321C25.2615 376.146 25.2785 375.961 25.1975 375.764C22.9458 370.314 20.8668 364.802 18.9605 359.228C18.8837 358.998 18.7302 358.849 18.4999 358.78C17.3228 358.431 16.8153 357.64 16.9774 356.407C17.0158 356.121 17.1395 355.876 17.3484 355.671C17.5659 355.458 17.632 355.219 17.5467 354.955C15.359 348.17 13.4484 341.308 11.815 334.37C11.7681 334.165 11.6466 334.022 11.4504 333.941C9.76162 333.231 9.75522 331.804 10.6636 330.423C10.7787 330.248 10.815 330.058 10.7723 329.853C9.39059 323.559 8.23913 317.228 7.31797 310.861C7.28385 310.626 7.17084 310.439 6.97893 310.298C5.69954 309.36 5.55242 308.24 6.53755 306.939C6.66858 306.767 6.72606 306.549 6.69747 306.332C4.0406 285.832 3.7314 265.466 5.7699 245.234C5.80402 244.88 5.66969 244.603 5.3669 244.403C5.19205 244.287 5.06411 244.132 4.98308 243.936C4.5097 242.75 4.82103 241.844 5.91704 241.217C6.10042 241.11 6.2049 240.953 6.23049 240.744C7.0493 233.95 8.08348 227.195 9.33302 220.478C9.3714 220.273 9.33089 220.081 9.21148 219.902C8.3159 218.576 8.5334 217.516 9.86397 216.723C10.0474 216.616 10.1604 216.459 10.203 216.25C11.6061 209.575 13.248 202.965 15.1287 196.419C15.2268 196.078 15.2353 195.798 15.1543 195.581C15.0775 195.381 14.9624 195.204 14.8088 195.05C14.6596 194.901 14.5764 194.72 14.5593 194.506C14.457 193.316 14.9837 192.519 16.1394 192.114C16.3398 192.046 16.472 191.909 16.536 191.704C18.3613 185.802 20.3742 179.977 22.5747 174.228C22.6515 174.027 22.6472 173.827 22.5619 173.627C22.4425 173.345 22.2975 173.087 22.127 172.853C20.9563 171.196 22.1462 168.586 24.1548 168.451C24.3424 168.439 24.5216 168.394 24.6921 168.317C24.8895 168.231 25.0453 168.072 25.1271 167.876C27.3661 162.455 29.7799 157.12 32.3685 151.87C32.4623 151.674 32.473 151.472 32.4005 151.263C31.8034 149.591 32.3365 148.527 33.9997 148.071C34.2044 148.015 34.3537 147.894 34.4475 147.706C37.6972 141.373 41.1899 135.185 44.9258 129.142C45.0409 128.963 45.0708 128.769 45.0153 128.56C44.5846 126.905 45.1859 125.941 46.8193 125.668C46.9216 125.652 47.0196 125.614 47.1068 125.557C47.1939 125.5 47.2681 125.424 47.3246 125.336C50.9154 119.724 54.6108 114.382 58.4106 109.311C58.5428 109.132 58.5961 108.932 58.5705 108.71C58.3786 107.188 59.0524 106.301 60.5919 106.049C60.8009 106.015 60.9693 105.917 61.0973 105.755C73.7078 89.4893 87.9283 74.8509 103.759 61.8395C103.921 61.703 104 61.5303 103.995 61.3213C103.97 60.1272 104.484 59.398 105.537 59.1336C106.234 58.9545 106.797 59.4023 107.443 58.8905C112.685 54.7154 118.086 50.7557 123.647 47.0113C123.822 46.8919 123.93 46.7277 123.973 46.5188C124.28 44.9835 125.216 44.3502 126.781 44.6189C126.995 44.6572 127.191 44.6189 127.37 44.5037C133.238 40.6911 139.14 37.1515 145.077 33.8847C145.264 33.7824 145.386 33.6289 145.441 33.4242C145.889 31.8505 146.778 30.859 148.569 31.6906C148.761 31.7801 148.951 31.7759 149.139 31.6778C154.649 28.7864 160.24 26.0762 165.912 23.5472C166.108 23.4619 166.229 23.3148 166.276 23.1058C166.455 22.3318 166.603 21.5194 167.191 20.9629C168.462 19.7602 169.859 19.7091 171.381 20.8093C171.543 20.9287 171.718 20.9522 171.906 20.8797L188.794 14.5403C188.862 14.5143 188.924 14.4741 188.976 14.4222C189.028 14.3704 189.068 14.3082 189.094 14.2396C189.625 12.8387 190.949 12.2502 192.21 13.1969C192.296 13.2622 192.398 13.3056 192.506 13.3234C192.614 13.3412 192.725 13.3329 192.83 13.2993C199.555 11.1329 206.447 9.21803 213.505 7.55482C213.727 7.50364 213.889 7.37784 213.991 7.1774C214.802 5.67624 215.893 5.41397 217.267 6.39057C217.363 6.46109 217.474 6.51012 217.592 6.53438C217.71 6.55865 217.832 6.55761 217.951 6.53131C224.169 5.16236 230.542 4.00663 237.072 3.06414C237.178 3.05002 237.281 3.01438 237.374 2.95938C237.466 2.90438 237.546 2.83119 237.609 2.74429C238.539 1.47343 239.624 1.32844 240.865 2.30931C241.031 2.44151 241.221 2.49482 241.434 2.46923C261.824 -0.132205 282.247 -0.420073 302.704 1.60563C302.943 1.62696 303.142 1.54806 303.299 1.36895L303.677 0.953151C303.822 0.791289 304.015 0.681261 304.227 0.639696C305.349 0.413669 306.135 0.76337 306.587 1.6888C306.698 1.91482 306.88 2.04277 307.131 2.07262C313.899 2.86584 320.62 3.89575 327.294 5.16235C327.499 5.20073 327.687 5.16022 327.857 5.04081C329.213 4.0898 330.316 4.31582 331.165 5.71889C331.271 5.90227 331.427 6.01528 331.632 6.05793C338.361 7.46526 345.023 9.13273 351.616 11.0604C351.825 11.1201 352.021 11.0966 352.204 10.99C352.665 10.7149 352.985 10.3759 353.548 10.3567C354.639 10.3098 355.337 10.8322 355.639 11.9239C355.703 12.15 355.846 12.2992 356.068 12.3717C362.017 14.2183 367.892 16.2654 373.692 18.5128C373.888 18.5896 374.071 18.5619 374.242 18.4297C376.481 16.6641 379.167 17.4637 379.462 20.4639C379.487 20.6857 379.602 20.8392 379.807 20.9245C385.257 23.2103 390.631 25.654 395.928 28.2554C396.119 28.3535 396.311 28.3535 396.503 28.2554C397.795 27.6029 399.324 27.9739 399.619 29.5284C399.644 29.6649 399.676 29.795 399.715 29.9186C399.783 30.1191 399.913 30.2683 400.105 30.3664C406.387 33.582 412.523 37.0491 418.515 40.7679C418.854 40.9726 419.117 40.979 419.456 40.8319C420.952 40.1922 422.091 41.35 422.181 42.7445C422.198 42.9578 422.294 43.122 422.469 43.2371C427.902 46.7128 433.192 50.3868 438.339 54.2591C438.51 54.387 438.7 54.4318 438.909 54.3934C440.623 54.1077 441.578 54.8284 441.775 56.5556C441.796 56.7646 441.89 56.9352 442.056 57.0674C458.219 69.5713 472.779 83.7235 485.735 99.524C485.871 99.6904 486.046 99.7927 486.259 99.8311C486.511 99.8695 486.764 99.8887 487.02 99.8887C488.498 99.9015 489.01 101.43 488.639 102.671C488.571 102.885 488.607 103.079 488.748 103.253C492.854 108.435 496.833 113.87 500.684 119.559C500.75 119.655 500.836 119.734 500.937 119.79C501.038 119.847 501.151 119.879 501.266 119.886C502.597 119.95 503.576 120.947 503.185 122.31C503.143 122.464 503.109 122.615 503.083 122.764C503.045 122.973 503.083 123.167 503.198 123.346C506.943 129.095 510.472 134.974 513.785 140.983C513.888 141.17 514.045 141.269 514.259 141.277C515.555 141.328 516.286 141.972 516.453 143.209C516.483 143.444 516.442 143.667 516.331 143.881L515.992 144.514C515.89 144.706 515.89 144.9 515.992 145.096C518.828 150.452 521.5 155.971 524.008 161.651C524.093 161.843 524.236 161.969 524.436 162.029C525.242 162.253 526.08 162.278 526.707 162.854C528.166 164.189 528.202 165.686 526.816 167.345C526.743 167.429 526.695 167.533 526.678 167.643C526.661 167.754 526.676 167.868 526.72 167.972C528.908 173.23 530.97 178.714 532.906 184.425C532.974 184.629 533.113 184.755 533.322 184.802C534.661 185.135 535.224 185.979 535.01 187.335C534.976 187.544 534.882 187.723 534.729 187.873C534.384 188.21 534.258 188.521 534.352 188.807C536.471 195.383 538.377 202.225 540.07 209.334C540.126 209.573 540.271 209.731 540.505 209.808L540.87 209.923C541.053 209.983 541.211 210.083 541.343 210.224C542.29 211.243 542.262 212.243 541.26 213.224C541.111 213.373 541.058 213.552 541.1 213.761C542.452 220.124 543.606 226.519 544.561 232.946C544.591 233.155 544.702 233.304 544.894 233.393C546.058 233.922 546.418 234.797 545.975 236.016C545.902 236.217 545.781 236.379 545.61 236.502C545.256 236.758 545.105 237.095 545.156 237.513C547.745 257.284 548.039 277.628 546.039 298.547C546.005 298.913 546.165 299.144 546.519 299.237C546.69 299.283 546.845 299.379 546.962 299.514C547.08 299.648 547.154 299.815 547.177 299.992C547.335 301.306 546.932 302.14 545.968 302.493C545.695 302.596 545.542 302.794 545.508 303.088ZM271.82 1.86152C261.768 2.05343 251.746 2.76989 241.754 4.0109C241.545 4.03649 241.389 4.14097 241.287 4.32435C240.487 5.76366 238.888 6.08991 237.743 4.82331C237.598 4.66552 237.421 4.60156 237.212 4.63141C230.875 5.5611 224.57 6.70403 218.296 8.06018C218.087 8.1071 217.932 8.22437 217.829 8.41201C217.032 9.86625 215.915 10.1285 214.477 9.19884C214.29 9.0837 214.089 9.04958 213.876 9.09649C207.061 10.6829 200.225 12.5764 193.367 14.777C193.265 14.811 193.171 14.8668 193.092 14.9407C193.012 15.0146 192.949 15.1049 192.907 15.2056C192.28 16.7025 191.224 17.0522 189.74 16.2547C189.54 16.1523 189.333 16.1353 189.12 16.2035C183.563 18.0629 178.081 20.1249 172.673 22.3894C172.477 22.4704 172.364 22.6154 172.334 22.8244C171.912 25.735 169.692 26.9184 167.101 25.0633C166.939 24.9439 166.767 24.9247 166.583 25.0058C160.907 27.5048 155.32 30.2108 149.823 33.1235C149.614 33.2344 149.476 33.4028 149.407 33.6289C148.968 35.0831 148.026 35.5842 146.58 35.1322C146.367 35.0639 146.16 35.0852 145.959 35.1961C139.976 38.4842 134.117 42.0004 128.381 45.7447C128.176 45.8769 128.059 46.0667 128.029 46.3141C127.803 48.0839 126.822 48.7385 125.086 48.2779C124.839 48.2097 124.611 48.2481 124.402 48.3931C118.866 52.1545 113.471 56.1163 108.217 60.2786C108.051 60.4108 107.964 60.5814 107.955 60.7904C107.891 62.4622 106.996 63.1552 105.268 62.8694C105.194 62.8575 105.118 62.8616 105.045 62.8815C104.972 62.9013 104.904 62.9365 104.846 62.9846C98.7264 68.0168 92.8177 73.3114 87.1202 78.8682C87.0733 78.9151 87.0733 78.9642 87.1202 79.0154C87.1586 79.0623 87.2012 79.0665 87.2481 79.0282C95.6089 72.5608 106.234 71.3838 115.638 76.0408C126.82 81.5678 132.34 94.1506 129.359 106.215C129.308 106.429 129.391 106.535 129.609 106.535L207.127 106.529C207.392 106.529 207.618 106.433 207.805 106.241L262.679 51.2781C263.271 51.4572 263.883 51.7877 264.515 52.2696L210.562 106.164C210.307 106.416 210.358 106.542 210.716 106.542L262.148 106.529C262.263 107.096 262.267 107.751 262.16 108.493H208.611C208.394 108.493 208.208 108.569 208.055 108.723L170.466 146.331C170.313 146.484 170.298 146.651 170.422 146.83C174.597 152.732 174.513 158.662 170.172 164.62C169.72 164.824 169.204 165.342 168.624 166.174C162.743 170.358 156.875 170.385 151.019 166.257C150.84 166.129 150.674 166.142 150.521 166.296L112.881 203.891C112.753 204.022 112.682 204.199 112.682 204.383L112.67 258.015L110.731 257.983L110.725 206.808C110.725 206.266 110.535 206.187 110.156 206.571L56.4915 260.293C56.0352 259.875 55.7004 259.288 55.4872 258.534L110.341 203.756C110.589 203.509 110.712 203.213 110.712 202.867L110.725 125.502C110.725 125.263 110.608 125.169 110.373 125.221C103.759 126.662 97.7605 126.054 92.3785 123.398C77.1345 115.868 72.4391 96.3895 83.3332 82.9303C83.3758 82.8791 83.3715 82.8301 83.3204 82.7832C83.2692 82.7363 83.218 82.7384 83.1668 82.7896C75.8913 90.2655 69.0487 98.121 62.639 106.356C62.1912 106.925 62.2296 107.309 62.3959 107.962C62.4513 108.171 62.4471 108.375 62.3831 108.576C62.0547 109.625 61.3169 110.12 60.1697 110.06C59.9565 110.047 59.7859 110.126 59.658 110.297C55.8113 115.444 52.1479 120.724 48.668 126.135C48.5528 126.315 48.523 126.509 48.5784 126.718C49.022 128.394 48.4036 129.379 46.7233 129.673C46.5143 129.707 46.3544 129.816 46.2435 129.999C42.5248 136.034 39.0491 142.205 35.8165 148.512C35.7141 148.708 35.7056 148.909 35.7909 149.113C36.405 150.64 35.8996 151.634 34.2748 152.094C34.1723 152.122 34.0767 152.172 33.994 152.241C33.9114 152.309 33.8436 152.394 33.795 152.491C31.1979 157.792 28.7755 163.146 26.5281 168.554C26.4894 168.645 26.4767 168.745 26.4914 168.843C26.5061 168.941 26.5475 169.033 26.6112 169.11C28.4344 171.356 27.4812 174.01 24.5834 174.349C24.3531 174.375 24.1953 174.497 24.11 174.714C21.8327 180.488 19.8006 186.352 18.0137 192.306C17.9497 192.506 17.9689 192.7 18.0713 192.888C18.8133 194.282 18.4977 195.323 17.1245 196.01C16.9369 196.103 16.8153 196.25 16.7599 196.451C14.8792 202.852 13.2075 209.526 11.7447 216.473C11.7154 216.614 11.7236 216.759 11.7685 216.895C11.8134 217.031 11.8935 217.152 12.0006 217.247C12.8386 217.977 12.8386 219.358 11.8534 220.037C11.6189 220.199 11.3843 220.361 11.1498 220.523C10.9749 220.646 10.8683 220.815 10.8299 221.028C9.56331 227.63 8.55899 234.259 7.81694 240.916C7.79136 241.125 7.84679 241.311 7.98326 241.473C9.01957 242.71 8.89589 243.827 7.61224 244.825C7.44165 244.957 7.34783 245.128 7.33077 245.337C6.57166 253.23 6.1452 261.143 6.05137 269.076L6.14733 275.127C6.19424 285.733 6.88938 296.037 8.23274 306.037C8.26259 306.251 8.35642 306.426 8.51421 306.562C9.01957 306.997 9.43537 307.15 9.68486 307.816C9.98338 308.588 9.78294 309.308 9.08354 309.978C8.89163 310.161 8.81487 310.385 8.85325 310.65C9.81706 317.281 10.9792 323.638 12.3396 329.719C12.3822 329.919 12.4953 330.067 12.6786 330.16C14.0604 330.856 14.312 331.915 13.4335 333.34C13.3013 333.553 13.2629 333.781 13.3183 334.024C14.9517 340.907 16.8559 347.72 19.0308 354.462C19.0948 354.663 19.2206 354.81 19.4082 354.904C20.8582 355.612 21.2186 356.716 20.4893 358.218C20.3998 358.405 20.3891 358.599 20.4574 358.8C22.4276 364.557 24.4896 370.016 26.6432 375.176C26.7413 375.41 26.9162 375.54 27.1678 375.566C29.6882 375.848 31.1659 378.4 29.4067 380.466C29.185 380.726 29.1444 381.014 29.2852 381.33C31.8226 387.002 34.5477 392.588 37.4605 398.09C37.5628 398.282 37.7185 398.408 37.9275 398.467C39.2495 398.86 39.7336 399.762 39.3796 401.173C39.3199 401.399 39.3476 401.612 39.4628 401.813C42.7764 407.843 46.3203 413.743 50.0945 419.513C50.2097 419.688 50.3717 419.786 50.5807 419.808C52.2268 419.991 52.8665 420.946 52.4998 422.673C52.4775 422.777 52.4763 422.883 52.496 422.988C52.5158 423.092 52.5562 423.192 52.6149 423.281C56.355 428.791 60.3595 434.235 64.6284 439.613C64.6969 439.699 64.7827 439.771 64.8806 439.824C64.9785 439.877 65.0864 439.909 65.1977 439.92C66.6179 440.069 67.2555 440.858 67.1105 442.286C67.0982 442.398 67.1083 442.51 67.1402 442.618C67.172 442.726 67.225 442.826 67.296 442.913C72.0041 448.666 76.9767 454.245 82.2137 459.648C82.2905 459.729 82.3693 459.733 82.4504 459.661H82.4568C82.5378 459.592 82.5485 459.516 82.4888 459.43C75.0235 448.824 75.7591 434.239 85.2075 425.123C92.1119 418.466 100.507 416.161 110.392 418.208C110.61 418.251 110.719 418.161 110.719 417.94L110.712 340.568C110.712 340.426 110.685 340.286 110.631 340.156C110.577 340.025 110.498 339.906 110.399 339.807L55.4807 284.921C55.6385 284.149 55.9712 283.554 56.4787 283.136L110.22 336.896C110.544 337.221 110.706 337.152 110.706 336.692L110.731 285.49C111.243 285.354 111.889 285.341 112.67 285.452L112.676 338.937C112.676 339.067 112.702 339.196 112.751 339.315C112.8 339.435 112.873 339.543 112.964 339.634L150.572 377.242C150.598 377.271 150.635 377.288 150.674 377.292C150.713 377.295 150.751 377.284 150.783 377.261C156.715 373.009 162.666 373.071 168.637 377.447C169.157 378.253 169.605 378.703 169.98 378.797C174.313 384.78 174.407 390.678 170.262 396.491C170.138 396.665 170.153 396.83 170.306 396.983L208.029 434.706C208.191 434.868 208.387 434.949 208.618 434.949H261.067C261.267 434.949 261.384 434.849 261.418 434.648C262.766 426.721 267.464 422.307 275.511 421.407C275.737 421.381 275.85 421.255 275.85 421.029L275.812 298.169C276.195 298.097 276.571 298.095 276.937 298.163L276.899 421.029C276.899 421.243 276.999 421.392 277.2 421.477C277.782 421.72 278.703 421.707 279.164 421.835C285.599 423.622 289.331 427.893 290.358 434.648C290.388 434.849 290.505 434.949 290.71 434.949H343.191C343.296 434.949 343.401 434.928 343.499 434.888C343.596 434.847 343.685 434.788 343.76 434.712L381.566 396.913C381.69 396.789 381.701 396.659 381.598 396.523C378.233 392.036 377.632 387.232 379.794 382.11C380.178 381.202 380.888 380.319 381.381 379.391C381.748 378.701 382.242 378.129 382.865 377.677C388.737 373.397 395 372.764 400.924 377.255C401.039 377.34 401.145 377.334 401.243 377.236L438.851 339.622C439.031 339.442 439.132 339.198 439.133 338.943L439.152 286.546C439.152 286.286 439.02 286.139 438.755 286.104C435.314 285.691 432.505 284.484 430.33 282.484C427.558 279.938 425.993 276.626 425.635 272.549C425.614 272.336 425.496 272.229 425.283 272.229H341.745C341.532 272.229 341.417 272.336 341.4 272.549C340.871 278.614 338.517 283.347 334.337 286.751C327.218 292.553 317.385 292.879 309.939 287.25C305.705 284.047 303.165 279.545 302.321 273.746L302.289 269.671C303.21 264.131 305.568 259.8 309.364 256.678C322.068 246.239 340.619 254.926 341.393 271.046C341.395 271.109 341.421 271.17 341.467 271.214C341.512 271.258 341.573 271.283 341.636 271.283L425.322 271.289C425.387 271.29 425.45 271.266 425.499 271.224C425.547 271.181 425.577 271.122 425.584 271.059C426.556 263.152 430.972 258.551 438.832 257.254C439.041 257.22 439.145 257.096 439.145 256.883L439.133 204.454C439.133 204.219 439.047 204.019 438.877 203.852L401.301 166.283C401.143 166.125 400.973 166.11 400.789 166.238C394.725 170.486 388.759 170.373 382.89 165.899C382.434 165.174 381.98 164.69 381.528 164.447C378.027 159.794 377.387 154.92 379.609 149.823C380.044 148.825 380.799 147.847 381.4 146.849C381.519 146.653 381.498 146.474 381.336 146.311L343.792 108.755C343.719 108.682 343.632 108.624 343.537 108.584C343.441 108.545 343.339 108.525 343.236 108.525L289.648 108.493C289.533 107.904 289.529 107.252 289.635 106.535L341.253 106.548C341.282 106.547 341.31 106.538 341.334 106.521C341.358 106.504 341.377 106.481 341.388 106.455C341.4 106.428 341.403 106.398 341.398 106.369C341.394 106.341 341.381 106.314 341.361 106.292L287.288 52.2505L289.111 51.2589L344.099 106.279C344.253 106.437 344.438 106.516 344.656 106.516L422.149 106.542C422.194 106.542 422.239 106.532 422.28 106.512C422.321 106.493 422.357 106.464 422.385 106.428C422.413 106.392 422.432 106.35 422.441 106.305C422.45 106.261 422.448 106.214 422.437 106.17C419.43 94.0866 425.085 81.4718 436.273 75.9896C445.606 71.4158 456.117 72.5992 464.452 78.9002C464.499 78.9343 464.541 78.9279 464.58 78.881H464.586C464.625 78.8341 464.622 78.7915 464.58 78.7531C457.027 71.4094 449.201 64.603 441.103 58.334C440.902 58.1804 440.679 58.125 440.431 58.1676C438.806 58.4491 437.917 57.7689 437.764 56.127C437.738 55.8711 437.623 55.6664 437.418 55.5129C432.339 51.743 427.074 48.0988 421.624 44.5805C421.445 44.4611 421.251 44.4248 421.042 44.4717C419.451 44.8001 418.487 44.1945 418.151 42.655C418.108 42.446 417.995 42.2861 417.812 42.1752C411.76 38.4522 405.576 34.9616 399.26 31.7034C399.073 31.6053 398.879 31.5904 398.678 31.6586C397.177 32.1789 396.2 31.6885 395.748 30.1873C395.689 29.9869 395.563 29.8376 395.371 29.7395C390.087 27.1338 384.72 24.7008 379.27 22.4406C379.074 22.3595 378.888 22.3787 378.713 22.4981C377.894 23.0611 377.114 23.5536 376.084 23.3617C374.579 23.0803 373.715 22.1015 373.493 20.4255C373.463 20.1952 373.338 20.0374 373.116 19.9521C367.529 17.8284 361.676 15.7984 355.556 13.8622C355.305 13.7843 355.035 13.8049 354.801 13.9198C353.475 14.568 352.503 14.2652 351.884 13.0114C351.836 12.9129 351.767 12.8256 351.682 12.7551C351.598 12.6845 351.499 12.6324 351.392 12.602C344.713 10.6915 338.024 9.02612 331.324 7.606C331.221 7.58229 331.112 7.5857 331.009 7.61591C330.907 7.64612 330.812 7.70215 330.736 7.77872C329.994 8.50371 329.171 8.61458 328.267 8.11135C327.755 7.82988 327.678 7.43968 327.352 7.01108C327.22 6.8405 327.049 6.73601 326.84 6.69763C320.268 5.44382 313.654 4.42457 306.997 3.63988C306.788 3.61429 306.6 3.66972 306.434 3.80619C305.18 4.83824 304.052 4.7167 303.05 3.44157C302.918 3.27525 302.745 3.18143 302.532 3.1601C295.337 2.41379 287.932 2.01718 280.315 1.97027C277.773 1.57792 274.942 1.54167 271.82 1.86152ZM378.432 20.4191C378.432 19.9085 378.229 19.4187 377.868 19.0576C377.507 18.6965 377.017 18.4936 376.506 18.4936C375.996 18.4936 375.506 18.6965 375.145 19.0576C374.784 19.4187 374.581 19.9085 374.581 20.4191C374.581 20.9298 374.784 21.4195 375.145 21.7806C375.506 22.1417 375.996 22.3446 376.506 22.3446C377.017 22.3446 377.507 22.1417 377.868 21.7806C378.229 21.4195 378.432 20.9298 378.432 20.4191ZM171.221 22.9971C171.221 22.4881 171.019 22 170.659 21.6401C170.299 21.2802 169.811 21.078 169.302 21.078C168.793 21.078 168.305 21.2802 167.945 21.6401C167.585 22 167.383 22.4881 167.383 22.9971C167.383 23.5061 167.585 23.9942 167.945 24.3541C168.305 24.714 168.793 24.9162 169.302 24.9162C169.811 24.9162 170.299 24.714 170.659 24.3541C171.019 23.9942 171.221 23.5061 171.221 22.9971ZM128.617 99.6136C128.617 93.0309 126.002 86.7177 121.348 82.063C116.693 77.4083 110.38 74.7934 103.797 74.7934C97.2143 74.7934 90.9012 77.4083 86.2465 82.063C81.5918 86.7177 78.9768 93.0309 78.9768 99.6136C78.9768 102.873 79.6188 106.101 80.8662 109.112C82.1135 112.123 83.9417 114.859 86.2465 117.164C88.5513 119.469 91.2874 121.297 94.2988 122.545C97.3101 123.792 100.538 124.434 103.797 124.434C107.057 124.434 110.284 123.792 113.295 122.545C116.307 121.297 119.043 119.469 121.348 117.164C123.652 114.859 125.481 112.123 126.728 109.112C127.975 106.101 128.617 102.873 128.617 99.6136ZM472.825 99.6072C472.825 93.0245 470.21 86.7113 465.556 82.0566C460.901 77.4019 454.588 74.787 448.005 74.787C441.422 74.787 435.109 77.4019 430.455 82.0566C425.8 86.7113 423.185 93.0245 423.185 99.6072C423.185 106.19 425.8 112.503 430.455 117.158C435.109 121.812 441.422 124.427 448.005 124.427C454.588 124.427 460.901 121.812 465.556 117.158C470.21 112.503 472.825 106.19 472.825 99.6072ZM496.347 258.54C496.147 259.188 495.799 259.764 495.304 260.267L441.544 206.488C441.254 206.198 441.109 206.26 441.109 206.673L441.09 257.03C441.09 257.167 441.16 257.243 441.301 257.261C447.587 258.05 451.854 261.519 454.102 267.668C453.769 270.308 453.762 273.038 454.082 275.857C451.878 281.887 447.658 285.32 441.423 286.156C441.205 286.185 441.097 286.313 441.097 286.539L441.103 337.037C441.102 337.069 441.111 337.101 441.128 337.128C441.146 337.155 441.171 337.176 441.201 337.189C441.231 337.201 441.264 337.204 441.295 337.198C441.327 337.191 441.356 337.175 441.378 337.152L495.368 283.085L496.373 284.921L441.634 339.596C441.282 339.948 441.084 340.424 441.084 340.92L441.103 417.952C441.103 418.195 441.222 418.291 441.461 418.24C448.677 416.632 455.249 417.545 461.177 420.978C475.333 429.166 478.608 447.59 468.533 460.473C468.495 460.52 468.499 460.565 468.546 460.607C468.593 460.65 468.638 460.65 468.68 460.607C476.05 453.059 482.963 445.112 489.419 436.766C489.577 436.561 489.643 436.331 489.618 436.075C489.464 434.651 490.078 433.83 491.46 433.612C491.729 433.57 491.946 433.437 492.112 433.216C495.844 428.222 499.524 422.912 503.154 417.287C503.302 417.056 503.363 416.777 503.326 416.5C503.16 415.289 503.672 414.485 504.861 414.089C505.114 414.002 505.326 413.832 505.463 413.609C509.267 407.4 512.779 401.182 515.999 394.955C516.101 394.759 516.127 394.552 516.075 394.335C515.743 392.927 516.24 392.002 517.566 391.559C517.652 391.53 517.732 391.485 517.799 391.424C517.866 391.363 517.92 391.289 517.956 391.207L525.21 375.253C525.308 375.039 525.315 374.824 525.229 374.607C524.954 373.864 524.513 373.276 524.487 372.508C524.423 370.941 525.409 369.674 526.963 369.387C527.334 369.318 527.59 369.105 527.731 368.747C529.799 363.408 531.81 357.593 533.763 351.302C533.827 351.098 533.829 350.893 533.769 350.688C533.603 350.108 533.575 349.526 533.686 348.942C533.725 348.729 533.829 348.556 534 348.424C534.554 347.98 534.912 347.494 535.074 346.965C536.797 341.238 538.446 334.632 540.019 327.147C540.062 326.938 540.028 326.744 539.917 326.565C539.115 325.273 539.33 324.181 540.563 323.29C540.734 323.166 540.84 323 540.883 322.791C542.184 316.134 543.213 309.43 543.973 302.679C543.994 302.466 543.945 302.272 543.825 302.097C543.045 300.941 543.147 299.928 544.132 299.058C544.305 298.906 544.415 298.691 544.439 298.457C546.431 278.038 546.15 257.736 543.595 237.551C543.565 237.313 543.454 237.123 543.262 236.982C542.034 236.074 541.889 234.995 542.828 233.745C542.973 233.553 543.028 233.338 542.994 233.099C542.085 226.851 540.934 220.501 539.539 214.049C539.513 213.926 539.462 213.809 539.39 213.705C539.317 213.602 539.224 213.514 539.117 213.448C538.478 213.055 538.13 212.518 538.075 211.836C538.057 211.639 538.092 211.45 538.177 211.266C538.51 210.563 538.65 210.172 538.458 209.354C536.829 202.526 534.957 195.807 532.842 189.197C532.761 188.954 532.609 188.77 532.388 188.647C531.223 188.011 530.912 187.058 531.454 185.787C531.548 185.569 531.557 185.323 531.479 185.096C529.616 179.561 527.535 174.025 525.236 168.49C525.194 168.393 525.13 168.309 525.049 168.243C524.967 168.177 524.871 168.132 524.769 168.112C522.551 167.711 521.63 166.436 522.005 164.287C522.048 164.048 522.148 163.835 522.306 163.647C522.46 163.472 522.579 163.276 522.664 163.059C522.745 162.846 522.739 162.634 522.645 162.425C520.112 156.736 517.408 151.156 514.534 145.685C514.418 145.466 514.227 145.297 513.996 145.211C512.811 144.763 512.346 143.91 512.602 142.652C512.653 142.405 512.619 142.171 512.499 141.949C509.199 135.901 505.657 129.986 501.874 124.204C501.721 123.969 501.507 123.83 501.234 123.788C499.733 123.532 499.153 122.653 499.494 121.152C499.554 120.888 499.507 120.643 499.354 120.417C495.584 114.851 491.609 109.429 487.43 104.149C487.277 103.96 487.06 103.834 486.822 103.797C485.41 103.584 484.745 102.75 484.826 101.296C484.839 101.036 484.764 100.806 484.602 100.605C479.485 94.4086 474.12 88.436 468.508 82.6872C468.486 82.6659 468.458 82.6616 468.424 82.6744C468.412 82.6787 468.399 82.6808 468.386 82.6808C468.335 82.6893 468.322 82.7086 468.348 82.7384C479.069 96.0185 475.071 115.644 459.616 123.314C454.067 126.069 448.007 126.707 441.436 125.227C441.394 125.217 441.351 125.217 441.31 125.227C441.268 125.236 441.229 125.255 441.196 125.281C441.163 125.307 441.136 125.341 441.118 125.379C441.099 125.418 441.09 125.46 441.09 125.502L441.097 202.976C441.097 203.206 441.178 203.4 441.34 203.558L496.347 258.54ZM141.181 113.214C155.171 116.969 160.359 133.364 151.359 144.565C151.154 144.817 151.186 144.853 151.454 144.674C157.233 140.861 162.911 140.959 168.49 144.968C168.694 145.113 168.884 145.098 169.059 144.923L205.163 108.832C205.385 108.61 205.34 108.499 205.029 108.499L129.014 108.493C128.796 108.493 128.649 108.595 128.573 108.8C127.421 111.755 125.882 114.378 123.954 116.668C123.66 117.018 123.698 117.058 124.069 116.789C129.596 112.828 135.3 111.636 141.181 113.214ZM396.049 130.575C397.501 114.986 414.715 107.38 427.33 116.521C427.381 116.555 427.437 116.563 427.497 116.546C427.548 116.534 427.588 116.508 427.618 116.47C427.633 116.451 427.641 116.429 427.641 116.406C427.641 116.382 427.633 116.36 427.618 116.342C425.797 114.111 424.358 111.616 423.3 108.857C423.206 108.614 423.029 108.493 422.769 108.493L346.94 108.499C346.53 108.499 346.47 108.644 346.76 108.934L382.737 144.911C382.916 145.09 383.108 145.107 383.313 144.962C388.912 140.97 394.599 140.876 400.373 144.68C400.561 144.804 400.587 144.778 400.45 144.603C397.055 140.215 395.588 135.539 396.049 130.575ZM154.25 132.104C154.25 127.336 152.356 122.764 148.985 119.393C145.614 116.022 141.042 114.128 136.274 114.128C131.507 114.128 126.935 116.022 123.564 119.393C120.193 122.764 118.299 127.336 118.299 132.104C118.299 136.871 120.193 141.443 123.564 144.814C126.935 148.185 131.507 150.079 136.274 150.079C141.042 150.079 145.614 148.185 148.985 144.814C152.356 141.443 154.25 136.871 154.25 132.104ZM433.503 132.097C433.503 127.328 431.609 122.755 428.237 119.382C424.864 116.01 420.29 114.116 415.521 114.116C410.752 114.116 406.179 116.01 402.806 119.382C399.434 122.755 397.54 127.328 397.54 132.097C397.54 136.866 399.434 141.44 402.806 144.813C406.179 148.185 410.752 150.079 415.521 150.079C420.29 150.079 424.864 148.185 428.237 144.813C431.609 141.44 433.503 136.866 433.503 132.097ZM120.583 119.962C118.344 121.894 115.74 123.148 112.951 124.415C112.764 124.5 112.67 124.645 112.67 124.85L112.682 200.82C112.682 201.166 112.804 201.217 113.047 200.974L149.158 164.812C149.307 164.662 149.32 164.502 149.196 164.332C145.09 158.651 145.038 152.875 149.043 147.002C149.048 146.997 149.051 146.99 149.051 146.983C149.051 146.976 149.048 146.969 149.043 146.964C149.038 146.959 149.031 146.956 149.024 146.956C149.016 146.956 149.01 146.959 149.004 146.964C143.883 151.028 138.358 152.461 132.43 151.263C118.235 148.397 112.036 131.63 120.807 120.173C121.421 119.372 121.346 119.301 120.583 119.962ZM431.13 120.346C440.009 132.43 433.011 149.203 418.311 151.455C413.811 152.146 409.425 151.226 405.152 148.698C404.602 148.371 403.937 147.751 403.271 147.399C403.028 147.271 402.981 147.324 403.13 147.559C406.777 153.205 406.581 158.85 402.542 164.492C402.517 164.53 402.506 164.575 402.51 164.619C402.515 164.664 402.535 164.705 402.568 164.735L438.896 201.082C438.916 201.103 438.941 201.118 438.969 201.124C438.997 201.13 439.027 201.127 439.053 201.116C439.079 201.104 439.102 201.085 439.117 201.061C439.133 201.037 439.14 201.009 439.139 200.98L439.145 124.856C439.145 124.604 439.026 124.434 438.787 124.344C436.002 123.338 433.542 121.92 431.405 120.09C430.561 119.365 430.469 119.451 431.13 120.346ZM171.893 155.606C171.893 152.395 170.617 149.315 168.346 147.044C166.075 144.773 162.995 143.497 159.783 143.497C156.572 143.497 153.492 144.773 151.221 147.044C148.95 149.315 147.674 152.395 147.674 155.606C147.674 158.818 148.95 161.898 151.221 164.169C153.492 166.44 156.572 167.716 159.783 167.716C162.995 167.716 166.075 166.44 168.346 164.169C170.617 161.898 171.893 158.818 171.893 155.606ZM404.135 155.6C404.135 154.009 403.821 152.433 403.213 150.963C402.604 149.493 401.711 148.158 400.586 147.033C399.461 145.908 398.125 145.015 396.655 144.406C395.186 143.797 393.61 143.484 392.019 143.484C388.806 143.484 385.724 144.761 383.452 147.033C381.18 149.305 379.903 152.387 379.903 155.6C379.903 158.813 381.18 161.895 383.452 164.167C385.724 166.439 388.806 167.716 392.019 167.716C393.61 167.716 395.186 167.402 396.655 166.793C398.125 166.185 399.461 165.292 400.586 164.167C401.711 163.042 402.604 161.706 403.213 160.236C403.821 158.766 404.135 157.191 404.135 155.6ZM526.777 165.125C526.777 164.609 526.573 164.115 526.208 163.75C525.843 163.385 525.349 163.18 524.833 163.18C524.317 163.18 523.822 163.385 523.458 163.75C523.093 164.115 522.888 164.609 522.888 165.125C522.888 165.641 523.093 166.135 523.458 166.5C523.822 166.865 524.317 167.07 524.833 167.07C525.349 167.07 525.843 166.865 526.208 166.5C526.573 166.135 526.777 165.641 526.777 165.125ZM26.5345 171.336C26.5345 170.827 26.3323 170.339 25.9724 169.979C25.6125 169.62 25.1244 169.417 24.6154 169.417C24.1064 169.417 23.6183 169.62 23.2584 169.979C22.8985 170.339 22.6963 170.827 22.6963 171.336C22.6963 171.845 22.8985 172.334 23.2584 172.693C23.6183 173.053 24.1064 173.256 24.6154 173.256C25.1244 173.256 25.6125 173.053 25.9724 172.693C26.3323 172.334 26.5345 171.845 26.5345 171.336ZM339.82 271.73C339.82 269.37 339.355 267.032 338.451 264.852C337.548 262.671 336.224 260.689 334.555 259.02C332.886 257.351 330.904 256.027 328.723 255.123C326.542 254.22 324.205 253.755 321.844 253.755C317.077 253.755 312.505 255.649 309.134 259.02C305.763 262.391 303.869 266.963 303.869 271.73C303.869 274.091 304.334 276.429 305.237 278.609C306.14 280.79 307.464 282.772 309.134 284.441C310.803 286.11 312.784 287.434 314.965 288.338C317.146 289.241 319.484 289.706 321.844 289.706C324.205 289.706 326.542 289.241 328.723 288.338C330.904 287.434 332.886 286.11 334.555 284.441C336.224 282.772 337.548 280.79 338.451 278.609C339.355 276.429 339.82 274.091 339.82 271.73ZM453.001 271.724C453.001 268.305 451.643 265.027 449.226 262.61C446.809 260.192 443.53 258.834 440.111 258.834C436.693 258.834 433.414 260.192 430.997 262.61C428.58 265.027 427.221 268.305 427.221 271.724C427.221 275.143 428.58 278.421 430.997 280.839C433.414 283.256 436.693 284.614 440.111 284.614C443.53 284.614 446.809 283.256 449.226 280.839C451.643 278.421 453.001 275.143 453.001 271.724ZM426.46 395.166C435.742 401.269 437.904 414.466 430.964 423.339C430.529 423.897 430.584 423.953 431.13 423.505C433.326 421.705 435.892 420.221 438.826 419.053C439.035 418.972 439.139 418.82 439.139 418.598L439.145 342.513C439.145 342.27 439.058 342.234 438.883 342.404L402.862 378.432C402.674 378.62 402.642 378.831 402.766 379.065C403.118 379.711 403.706 380.306 404.071 380.984C406.736 385.974 406.519 390.9 403.418 395.761C403.252 396.021 403.295 396.058 403.546 395.87C410.436 390.714 419.328 390.471 426.46 395.166ZM121.766 398.231C128.272 390.996 140.055 389.511 147.93 395.672C148.399 396.039 148.482 395.966 148.179 395.454C144.806 389.705 145.143 384.176 149.19 378.867C149.22 378.83 149.235 378.782 149.231 378.734C149.228 378.685 149.206 378.639 149.171 378.605L113.047 342.475C112.8 342.227 112.676 342.276 112.676 342.622V418.598C112.676 418.807 112.772 418.95 112.964 419.027C115.762 420.157 118.327 421.648 120.659 423.499C121.026 423.793 121.073 423.746 120.8 423.358C115.222 415.458 115.299 405.427 121.766 398.231ZM529.324 372.336C529.324 371.832 529.123 371.348 528.767 370.992C528.411 370.636 527.927 370.436 527.424 370.436C526.92 370.436 526.436 370.636 526.08 370.992C525.724 371.348 525.524 371.832 525.524 372.336C525.524 372.839 525.724 373.323 526.08 373.679C526.436 374.035 526.92 374.235 527.424 374.235C527.927 374.235 528.411 374.035 528.767 373.679C529.123 373.323 529.324 372.839 529.324 372.336ZM171.688 387.855C171.688 384.643 170.412 381.563 168.141 379.292C165.87 377.021 162.79 375.745 159.579 375.745C156.367 375.745 153.287 377.021 151.016 379.292C148.745 381.563 147.469 384.643 147.469 387.855C147.469 391.066 148.745 394.146 151.016 396.417C153.287 398.688 156.367 399.964 159.579 399.964C162.79 399.964 165.87 398.688 168.141 396.417C170.412 394.146 171.688 391.066 171.688 387.855ZM404.333 387.855C404.333 384.643 403.057 381.563 400.786 379.292C398.515 377.021 395.435 375.745 392.224 375.745C389.012 375.745 385.932 377.021 383.661 379.292C381.39 381.563 380.114 384.643 380.114 387.855C380.114 391.066 381.39 394.146 383.661 396.417C385.932 398.688 389.012 399.964 392.224 399.964C395.435 399.964 398.515 398.688 400.786 396.417C403.057 394.146 404.333 391.066 404.333 387.855ZM29.1508 378.56C29.1508 378.041 28.9446 377.543 28.5775 377.176C28.2104 376.809 27.7125 376.602 27.1934 376.602C26.6742 376.602 26.1763 376.809 25.8092 377.176C25.4421 377.543 25.2359 378.041 25.2359 378.56C25.2359 379.079 25.4421 379.577 25.8092 379.944C26.1763 380.311 26.6742 380.517 27.1934 380.517C27.7125 380.517 28.2104 380.311 28.5775 379.944C28.9446 379.577 29.1508 379.079 29.1508 378.56ZM154.256 411.351C154.256 408.99 153.791 406.653 152.888 404.472C151.985 402.291 150.661 400.309 148.991 398.64C147.322 396.971 145.341 395.647 143.16 394.744C140.979 393.84 138.641 393.375 136.281 393.375C133.92 393.375 131.583 393.84 129.402 394.744C127.221 395.647 125.239 396.971 123.57 398.64C121.901 400.309 120.577 402.291 119.674 404.472C118.77 406.653 118.305 408.99 118.305 411.351C118.305 416.118 120.199 420.69 123.57 424.061C126.941 427.432 131.513 429.326 136.281 429.326C141.048 429.326 145.62 427.432 148.991 424.061C152.363 420.69 154.256 416.118 154.256 411.351ZM433.503 411.357C433.503 406.588 431.609 402.014 428.237 398.642C424.864 395.27 420.29 393.375 415.521 393.375C410.752 393.375 406.179 395.27 402.806 398.642C399.434 402.014 397.54 406.588 397.54 411.357C397.54 416.126 399.434 420.7 402.806 424.072C406.179 427.444 410.752 429.339 415.521 429.339C420.29 429.339 424.864 427.444 428.237 424.072C431.609 420.7 433.503 416.126 433.503 411.357ZM151.96 399.305C151.768 399.194 151.734 399.231 151.857 399.414C156.131 405.709 156.986 412.106 154.423 418.605C149.657 430.676 134.336 434.834 124.203 426.729C123.653 426.286 123.606 426.335 124.063 426.876C125.948 429.124 127.449 431.725 128.566 434.68C128.596 434.76 128.65 434.828 128.719 434.876C128.789 434.924 128.872 434.949 128.956 434.949H205.247C205.421 434.949 205.447 434.887 205.323 434.764L168.925 398.365C168.775 398.216 168.615 398.205 168.445 398.333C163.251 402.29 157.756 402.615 151.96 399.305ZM414.639 430.9C398.531 430.132 390.458 411.651 400.29 399.081C400.341 399.022 400.333 399.011 400.265 399.049C394.222 402.593 388.565 402.344 383.293 398.301C383.178 398.216 383.07 398.224 382.967 398.326L346.632 434.661C346.449 434.849 346.487 434.943 346.748 434.943L422.769 434.949C423.017 434.949 423.185 434.836 423.275 434.61C424.422 431.723 425.919 429.134 427.765 426.844C428.145 426.379 428.096 426.328 427.618 426.691C423.622 429.719 419.296 431.122 414.639 430.9ZM472.819 443.841C472.819 437.258 470.204 430.945 465.549 426.29C460.895 421.636 454.582 419.021 447.999 419.021C441.416 419.021 435.103 421.636 430.448 426.29C425.794 430.945 423.179 437.258 423.179 443.841C423.179 450.424 425.794 456.737 430.448 461.391C435.103 466.046 441.416 468.661 447.999 468.661C454.582 468.661 460.895 466.046 465.549 461.391C470.204 456.737 472.819 450.424 472.819 443.841ZM128.617 443.841C128.617 437.258 126.002 430.945 121.348 426.29C116.693 421.636 110.38 419.021 103.797 419.021C97.2143 419.021 90.9012 421.636 86.2465 426.29C81.5918 430.945 78.9768 437.258 78.9768 443.841C78.9768 450.424 81.5918 456.737 86.2465 461.391C90.9012 466.046 97.2143 468.661 103.797 468.661C110.38 468.661 116.693 466.046 121.348 461.391C126.002 456.737 128.617 450.424 128.617 443.841ZM288.791 435.953C288.791 432.535 287.433 429.256 285.016 426.839C282.598 424.422 279.32 423.064 275.901 423.064C272.483 423.064 269.204 424.422 266.787 426.839C264.369 429.256 263.011 432.535 263.011 435.953C263.011 439.372 264.369 442.651 266.787 445.068C269.204 447.485 272.483 448.843 275.901 448.843C279.32 448.843 282.598 447.485 285.016 445.068C287.433 442.651 288.791 439.372 288.791 435.953ZM272.178 541.497L279.01 541.529C289.586 541.465 300.028 540.749 310.336 539.38C310.545 539.354 310.716 539.256 310.848 539.085C311.769 537.887 312.865 537.742 314.136 538.65C314.306 538.774 314.498 538.821 314.712 538.791C321.113 537.861 327.486 536.706 333.832 535.324C334.067 535.27 334.274 535.134 334.414 534.94C335.165 533.878 336.133 533.659 337.318 534.281C337.54 534.396 337.773 534.424 338.016 534.364C344.967 532.714 351.85 530.791 358.665 528.594C358.866 528.53 359.021 528.409 359.132 528.23C359.857 527.087 360.881 526.756 362.203 527.238C362.403 527.315 362.604 527.317 362.804 527.245C368.374 525.343 373.886 523.255 379.34 520.982C379.545 520.897 379.673 520.745 379.724 520.528C380.214 518.391 381.434 517.485 383.383 517.809C383.824 517.879 384.298 518.257 384.726 518.43C384.927 518.506 385.125 518.502 385.321 518.417C390.968 515.926 396.584 513.201 402.171 510.241C402.354 510.143 402.493 510.001 402.587 509.813C403.111 508.721 403.99 508.243 405.222 508.38C405.436 508.401 405.634 508.361 405.817 508.258C411.877 504.936 417.809 501.384 423.614 497.601C423.818 497.465 423.953 497.277 424.017 497.038C424.383 495.622 425.249 495.038 426.614 495.285C426.87 495.332 427.106 495.281 427.324 495.132C432.872 491.345 438.335 487.33 443.713 483.086C443.919 482.925 444.058 482.695 444.103 482.44C444.316 481.276 445.048 480.694 446.297 480.694C446.553 480.694 446.8 480.603 446.994 480.438C453.131 475.397 458.976 470.169 464.529 464.753C464.968 464.322 464.923 464.262 464.394 464.573C463.575 465.06 462.737 465.815 461.88 466.313C454.374 470.655 446.698 471.416 438.851 468.597C426.217 464.049 419.059 450.302 422.475 437.214C422.484 437.18 422.485 437.144 422.477 437.109C422.47 437.075 422.455 437.043 422.434 437.015C422.412 436.987 422.384 436.964 422.353 436.949C422.321 436.934 422.286 436.926 422.251 436.926H344.649C344.423 436.926 344.231 437.007 344.074 437.169L289.111 492.176C288.522 492.036 287.906 491.716 287.262 491.217L341.24 437.284C341.479 437.045 341.427 436.926 341.086 436.926H290.742C290.516 436.926 290.388 437.039 290.358 437.265C289.599 443.265 286.209 447.485 280.187 449.924C278.132 449.745 276.724 449.656 275.965 449.656C275.091 449.652 273.684 449.75 271.743 449.95C265.675 447.613 262.241 443.385 261.444 437.265C261.414 437.03 261.282 436.913 261.047 436.913L210.735 436.939C210.432 436.939 210.388 437.047 210.601 437.265L264.489 491.172C263.956 491.671 263.369 492.004 262.73 492.17L207.594 437.035C207.525 436.969 207.433 436.932 207.338 436.932L129.558 436.919C129.421 436.919 129.368 436.985 129.398 437.118C131.249 445.685 129.767 453.178 124.952 459.597C115.913 471.649 99.5303 473.6 87.6191 464.689C87.5509 464.637 87.4912 464.644 87.44 464.708L87.4336 464.714C87.3824 464.778 87.3846 464.838 87.44 464.893C94.8861 472.156 102.727 478.967 110.962 485.325C111.132 485.453 111.322 485.504 111.531 485.479C113.237 485.27 114.173 485.984 114.339 487.622C114.361 487.835 114.457 488.003 114.627 488.127C119.783 491.935 125.058 495.573 130.453 499.04C130.632 499.156 130.826 499.196 131.035 499.162C132.549 498.91 133.509 499.512 133.914 500.966C133.969 501.171 134.089 501.328 134.272 501.439C140.32 505.171 146.507 508.659 152.836 511.905C153.058 512.02 153.286 512.041 153.521 511.969C154.847 511.576 155.758 512.035 156.252 513.344C156.339 513.578 156.513 513.768 156.738 513.875C162.291 516.583 167.664 519.007 172.859 521.148C173.072 521.238 173.275 521.217 173.466 521.084C175.053 519.946 176.479 520.031 177.746 521.34C178.239 521.852 178.296 522.562 178.603 523.215C178.697 523.406 178.842 523.541 179.038 523.618C184.83 525.848 190.696 527.869 196.636 529.682C196.837 529.746 197.035 529.737 197.231 529.656C198.472 529.162 199.438 529.452 200.129 530.526C200.244 530.701 200.402 530.818 200.602 530.878C207.264 532.823 213.991 534.501 220.785 535.913C220.994 535.959 221.188 535.923 221.367 535.804C222.676 534.959 223.749 535.173 224.585 536.443C224.7 536.623 224.862 536.731 225.071 536.77C231.643 538.036 238.374 539.064 245.266 539.853C245.492 539.879 245.697 539.821 245.88 539.68C246.912 538.904 247.867 539.006 248.746 539.987C248.912 540.171 249.117 540.273 249.36 540.294C256.815 541.066 264.421 541.467 272.178 541.497ZM384.624 520.681C384.624 520.177 384.424 519.694 384.068 519.338C383.711 518.982 383.228 518.781 382.724 518.781C382.22 518.781 381.737 518.982 381.381 519.338C381.024 519.694 380.824 520.177 380.824 520.681C380.824 520.931 380.873 521.178 380.969 521.408C381.064 521.639 381.204 521.848 381.381 522.025C381.557 522.201 381.767 522.341 381.997 522.437C382.228 522.532 382.475 522.581 382.724 522.581C382.974 522.581 383.221 522.532 383.451 522.437C383.682 522.341 383.891 522.201 384.068 522.025C384.244 521.848 384.384 521.639 384.479 521.408C384.575 521.178 384.624 520.931 384.624 520.681ZM177.445 523.259C177.445 522.754 177.245 522.269 176.887 521.911C176.53 521.554 176.045 521.353 175.539 521.353C175.034 521.353 174.549 521.554 174.191 521.911C173.834 522.269 173.633 522.754 173.633 523.259C173.633 523.765 173.834 524.25 174.191 524.607C174.549 524.965 175.034 525.166 175.539 525.166C176.045 525.166 176.53 524.965 176.887 524.607C177.245 524.25 177.445 523.765 177.445 523.259Z" fill="white"/>
</g>
<path d="M185.589 180.151L170.172 164.62" stroke="#97B9F9" stroke-width="2"/>
<path d="M170.171 164.62L185.588 180.151L184.04 181.565L168.623 166.174C169.203 165.342 169.719 164.824 170.171 164.62Z" fill="#2F72F3"/>
<path d="M203.385 200.916L216.403 213.857C216.603 214.053 216.81 214.06 217.023 213.876L217.855 213.179C217.902 213.139 217.94 213.089 217.967 213.034C217.995 212.978 218.01 212.917 218.012 212.855C218.015 212.793 218.004 212.731 217.981 212.674C217.959 212.616 217.924 212.564 217.88 212.52L204.818 199.406" stroke="#97B9F9" stroke-width="2"/>
<path d="M204.818 199.406L217.88 212.52C217.924 212.564 217.959 212.616 217.981 212.674C218.004 212.731 218.015 212.793 218.012 212.855C218.01 212.917 217.995 212.978 217.967 213.034C217.94 213.089 217.902 213.139 217.855 213.179L217.023 213.876C216.81 214.06 216.603 214.053 216.403 213.857L203.385 200.916C203.726 200.225 204.204 199.722 204.818 199.406Z" fill="#2F72F3"/>
<path d="M257.714 252.591L238.031 232.677C237.835 232.476 237.64 232.478 237.449 232.683L236.681 233.502C236.472 233.728 236.476 233.95 236.694 234.167L256.441 253.851" stroke="#97B9F9" stroke-width="2"/>
<path d="M257.714 252.591L256.441 253.851L236.694 234.167C236.476 233.95 236.472 233.728 236.681 233.502L237.449 232.683C237.64 232.478 237.835 232.476 238.031 232.677L257.714 252.591Z" fill="#2F72F3"/>
<path d="M381.528 164.447L339.359 206.718C339.112 206.965 339.11 207.215 339.353 207.466L339.916 208.049C340.18 208.321 340.449 208.324 340.722 208.055L382.89 165.899" stroke="#F9A0A0" stroke-width="2"/>
<path d="M381.527 164.447C381.979 164.69 382.433 165.174 382.889 165.899L340.721 208.055C340.448 208.324 340.179 208.321 339.915 208.049L339.352 207.466C339.109 207.215 339.111 206.965 339.358 206.718L381.527 164.447Z" fill="#F24040"/>
<path d="M293.832 291.215L350.01 347.445" stroke="#97B9F9" stroke-width="2"/>
<path d="M351.539 346.178L295.169 289.866" stroke="#97B9F9" stroke-width="2"/>
<path d="M295.137 253.62L317.891 230.918C318.117 230.692 318.117 230.463 317.891 230.233L317.187 229.51C317.139 229.46 317.081 229.42 317.017 229.393C316.953 229.365 316.884 229.351 316.814 229.35C316.745 229.35 316.676 229.363 316.611 229.389C316.547 229.416 316.488 229.455 316.439 229.504L293.787 252.29" stroke="#F9A0A0" stroke-width="2"/>
<path d="M295.136 253.62L293.786 252.29L316.438 229.504C316.487 229.455 316.546 229.416 316.61 229.389C316.675 229.363 316.744 229.35 316.813 229.35C316.883 229.351 316.952 229.365 317.016 229.393C317.08 229.42 317.138 229.46 317.186 229.51L317.89 230.233C318.116 230.463 318.116 230.692 317.89 230.918L295.136 253.62Z" fill="#F24040"/>
<path d="M343.511 395.013C341.685 393.068 339.63 392.71 337.344 393.938C335.591 394.878 334.689 396.989 334.945 398.94C335.534 403.354 339.525 407.391 343.3 409.297C343.555 409.425 343.811 409.427 344.067 409.304C348.178 407.261 350.912 404.22 352.268 400.181C353.266 397.22 351.75 393.842 348.449 393.324C346.654 393.038 345.176 393.595 344.016 394.994C343.854 395.19 343.686 395.196 343.511 395.013Z" stroke="#F9A0A0" stroke-width="2"/>
<path d="M382.5 523C383.881 523 385 521.881 385 520.5C385 519.119 383.881 518 382.5 518C381.119 518 380 519.119 380 520.5C380 521.881 381.119 523 382.5 523Z" fill="white"/>
<path d="M295.168 289.866L351.538 346.178L350.009 347.445L293.831 291.215L295.168 289.866Z" fill="#2F72F3"/>
<path d="M256.442 289.559L168.637 377.447" stroke="#F9A0A0" stroke-width="2"/>
<path d="M376.5 23C377.881 23 379 21.8807 379 20.5C379 19.1193 377.881 18 376.5 18C375.119 18 374 19.1193 374 20.5C374 21.8807 375.119 23 376.5 23Z" fill="white"/>
<path d="M169.5 26C170.881 26 172 24.6569 172 23C172 21.3431 170.881 20 169.5 20C168.119 20 167 21.3431 167 23C167 24.6569 168.119 26 169.5 26Z" fill="white"/>
<path d="M27.5 381C28.8807 381 30 379.881 30 378.5C30 377.119 28.8807 376 27.5 376C26.1193 376 25 377.119 25 378.5C25 379.881 26.1193 381 27.5 381Z" fill="white"/>
<path d="M276.943 245.298V196.598" stroke="#848D9C" stroke-width="2"/>
<path d="M234.378 213.563C234.414 213.562 234.449 213.572 234.479 213.592C234.509 213.612 234.532 213.64 234.546 213.673C234.56 213.706 234.563 213.742 234.556 213.777C234.549 213.812 234.531 213.845 234.506 213.87L230.086 218.232C229.949 218.365 229.798 218.384 229.631 218.29C226.974 216.81 224.392 216.608 221.885 217.682C218.449 219.154 216.415 222.486 216.85 226.165C217.899 234.935 229.772 236.349 232.855 228.173C233.768 225.76 233.525 223.371 232.126 221.009C231.951 220.714 231.985 220.448 232.229 220.209L236.483 215.981C236.764 215.703 236.903 215.763 236.898 216.16L236.847 220.842C236.843 221.112 236.928 221.375 237.09 221.591C237.525 222.171 237.967 222.427 238.414 222.358C239.301 222.222 239.747 221.708 239.751 220.817L239.783 212.347C239.788 211.226 239.227 210.665 238.101 210.665L229.58 210.684C228.599 210.688 228.122 211.179 228.147 212.155L228.154 212.437C228.16 212.733 228.283 213.015 228.496 213.223C228.708 213.431 228.994 213.548 229.292 213.55L234.378 213.563Z" stroke="#97B9F9" stroke-width="2"/>
<path d="M331.119 224.879V223.536C331.119 223.267 331.249 223.103 331.509 223.043C337.19 221.655 339.877 215.124 336.371 210.268C330.895 202.682 318.907 208.528 321.818 217.574C322.722 220.38 324.709 222.212 327.78 223.069C327.968 223.124 328.087 223.246 328.138 223.433C328.266 223.881 328.307 224.369 328.26 224.898C328.238 225.163 328.096 225.297 327.831 225.301L324.671 225.346C324.387 225.35 324.114 225.456 323.903 225.646C323.691 225.835 323.555 226.094 323.52 226.376C323.503 226.5 323.494 226.621 323.494 226.741C323.49 226.93 323.523 227.118 323.593 227.295C323.662 227.471 323.766 227.632 323.898 227.768C324.03 227.904 324.188 228.012 324.363 228.086C324.537 228.16 324.725 228.198 324.914 228.199L327.812 228.225C328.093 228.229 328.234 228.372 328.234 228.653L328.253 230.899C328.257 231.171 328.356 231.432 328.533 231.638C328.709 231.844 328.952 231.981 329.219 232.024L329.59 232.088C329.776 232.119 329.967 232.109 330.148 232.058C330.33 232.008 330.499 231.918 330.643 231.796C330.787 231.674 330.903 231.522 330.983 231.35C331.063 231.179 331.105 230.992 331.106 230.803L331.119 228.583C331.123 228.34 331.247 228.218 331.49 228.218L333.672 228.225C334.525 228.225 335.196 227.877 335.687 227.182C335.93 226.837 335.925 226.493 335.674 226.152C335.26 225.593 334.706 225.314 334.011 225.314H331.554C331.26 225.314 331.115 225.169 331.119 224.879Z" stroke="#F9A0A0" stroke-width="2"/>
<path d="M257.804 290.979L169.98 378.796" stroke="#F9A0A0" stroke-width="2"/>
<path d="M302.34 396.554C300.856 398.563 299.457 400.527 298.143 402.446C297.947 402.732 297.384 403.327 296.455 404.231C295.252 405.399 295.209 406.8 296.327 408.434C296.446 408.609 296.467 408.798 296.391 409.003C295.986 410.031 296.09 410.894 296.704 411.594C297.216 412.178 297.758 412.756 298.329 413.327C298.854 413.852 299.807 414.217 300.434 414.217C303.589 414.225 306.743 414.223 309.895 414.21C311.993 414.204 312.383 412.739 313.797 411.651C315.326 410.487 315.307 408.53 313.95 407.173C313.792 407.016 313.687 406.81 313.65 406.585C313.338 404.576 313.01 403.333 312.665 402.855C311.18 400.791 309.724 398.678 308.295 396.516" stroke="#F7ED94" stroke-width="2"/>
<path d="M308.545 395.371C308.972 394.88 309.285 394.311 309.486 393.663C309.529 393.523 309.539 393.375 309.516 393.23C309.493 393.086 309.437 392.949 309.352 392.829C309.268 392.71 309.156 392.611 309.028 392.542C308.899 392.472 308.756 392.434 308.609 392.428C308.144 392.407 307.716 392.548 307.323 392.85C307.234 392.919 307.124 392.955 307.01 392.954C306.897 392.953 306.787 392.914 306.696 392.844C305.822 392.149 304.893 392.134 303.907 392.799C303.823 392.858 303.727 392.897 303.625 392.915C303.524 392.932 303.419 392.928 303.319 392.902C302.826 392.774 302.577 392.403 302.014 392.409C301.592 392.422 301.3 392.607 301.138 392.966C301.022 393.23 301.025 393.537 301.144 393.887C301.323 394.42 301.6 394.915 301.976 395.371" stroke="#F7ED94" stroke-width="2"/>
<path d="M304.335 410.314L304.495 411.197C304.509 411.284 304.542 411.366 304.59 411.44C304.639 411.514 304.702 411.577 304.777 411.626C305.118 411.847 305.468 411.843 305.826 411.613C305.975 411.519 306.065 411.385 306.094 411.21L306.216 410.468C306.259 410.191 306.417 410.018 306.689 409.95C309.344 409.246 309.741 406.137 306.984 405.018C306.071 404.651 305.139 404.256 304.188 403.834C304.067 403.781 303.959 403.701 303.873 403.6C303.787 403.5 303.725 403.38 303.692 403.252C303.659 403.123 303.655 402.988 303.681 402.858C303.707 402.727 303.763 402.604 303.843 402.497C303.945 402.361 304.075 402.25 304.233 402.164C305.043 401.712 305.839 401.742 306.619 402.254C307.084 402.561 307.579 402.753 308.103 402.83C308.162 402.837 308.221 402.83 308.276 402.809C308.331 402.788 308.379 402.753 308.417 402.708C308.532 402.576 308.596 402.401 308.609 402.184C308.63 401.74 308.436 401.431 308.026 401.256L306.485 400.604C306.335 400.54 306.242 400.431 306.203 400.277C306.178 400.162 306.169 400.043 306.178 399.919C306.195 399.706 306.137 399.516 306.005 399.35C305.775 399.047 305.44 398.962 305.001 399.094C304.766 399.162 304.604 399.299 304.514 399.503C304.416 399.712 304.369 399.945 304.374 400.201C304.378 400.41 304.284 400.559 304.092 400.648C303.414 400.955 302.71 401.263 302.339 401.947C300.83 404.73 304.681 405.772 306.549 406.534C306.699 406.595 306.833 406.691 306.939 406.814C307.045 406.938 307.121 407.084 307.159 407.242C307.198 407.4 307.199 407.564 307.162 407.723C307.124 407.881 307.05 408.028 306.945 408.152C305.986 409.284 304.105 408.798 302.966 407.979C302.706 407.796 302.491 407.7 302.32 407.691C302.005 407.679 301.783 407.815 301.655 408.101C301.603 408.217 301.586 408.346 301.605 408.472C301.625 408.598 301.68 408.715 301.764 408.811C302.284 409.412 303.011 409.788 303.945 409.937C304.042 409.951 304.132 409.996 304.202 410.063C304.272 410.131 304.319 410.219 304.335 410.314Z" stroke="#B6DC2D" stroke-width="2"/>
<path d="M524.5 168C525.881 168 527 166.881 527 165.5C527 164.119 525.881 163 524.5 163C523.119 163 522 164.119 522 165.5C522 166.881 523.119 168 524.5 168Z" fill="white"/>
<path d="M276.962 121.286V169.084L275.798 169.04L275.804 121.312C276.167 121.154 276.553 121.146 276.962 121.286Z" fill="white"/>
<path d="M527.5 375C528.881 375 530 373.881 530 372.5C530 371.119 528.881 370 527.5 370C526.119 370 525 371.119 525 372.5C525 373.881 526.119 375 527.5 375Z" fill="white"/>
<path d="M24.5 174C25.8807 174 27 172.881 27 171.5C27 170.119 25.8807 169 24.5 169C23.1193 169 22 170.119 22 171.5C22 172.881 23.1193 174 24.5 174Z" fill="white"/>
<path d="M331.554 225.314H334.011C334.706 225.314 335.26 225.593 335.674 226.152C335.925 226.493 335.93 226.836 335.687 227.182C335.196 227.877 334.525 228.224 333.672 228.224L331.49 228.218C331.247 228.218 331.123 228.34 331.119 228.583L331.106 230.802C331.105 230.992 331.063 231.179 330.983 231.35C330.903 231.522 330.787 231.674 330.643 231.796C330.499 231.918 330.33 232.007 330.148 232.058C329.967 232.108 329.776 232.119 329.59 232.088L329.219 232.024C328.952 231.981 328.709 231.844 328.533 231.638C328.356 231.432 328.257 231.17 328.253 230.898L328.234 228.653C328.234 228.372 328.093 228.229 327.812 228.224L324.914 228.199C324.725 228.198 324.537 228.159 324.363 228.085C324.188 228.011 324.03 227.903 323.898 227.768C323.766 227.632 323.662 227.471 323.593 227.295C323.523 227.118 323.49 226.93 323.494 226.74C323.494 226.621 323.503 226.499 323.52 226.376C323.555 226.094 323.691 225.835 323.903 225.645C324.114 225.456 324.387 225.35 324.671 225.346L327.831 225.301C328.096 225.297 328.238 225.162 328.26 224.898C328.307 224.369 328.266 223.881 328.138 223.433C328.087 223.245 327.968 223.124 327.78 223.068C324.709 222.211 322.722 220.38 321.818 217.573C318.907 208.528 330.895 202.681 336.371 210.268C339.877 215.123 337.19 221.655 331.509 223.043C331.249 223.103 331.119 223.267 331.119 223.535V224.879C331.115 225.169 331.26 225.314 331.554 225.314ZM335.021 215.002C335.021 213.58 334.457 212.217 333.451 211.211C332.446 210.206 331.082 209.641 329.661 209.641C328.957 209.641 328.26 209.78 327.609 210.049C326.959 210.319 326.368 210.714 325.87 211.211C325.372 211.709 324.977 212.3 324.708 212.95C324.439 213.601 324.3 214.298 324.3 215.002C324.3 215.706 324.439 216.403 324.708 217.053C324.977 217.704 325.372 218.295 325.87 218.792C326.368 219.29 326.959 219.685 327.609 219.954C328.26 220.224 328.957 220.363 329.661 220.363C331.082 220.363 332.446 219.798 333.451 218.792C334.457 217.787 335.021 216.424 335.021 215.002Z" fill="#F24040"/>
<path d="M308.544 395.371H301.975C301.599 394.915 301.322 394.42 301.143 393.887C301.024 393.537 301.021 393.23 301.137 392.966C301.299 392.607 301.591 392.422 302.013 392.409C302.576 392.403 302.825 392.774 303.318 392.902C303.418 392.928 303.523 392.932 303.625 392.915C303.726 392.897 303.822 392.858 303.906 392.799C304.892 392.134 305.821 392.149 306.696 392.844C306.786 392.914 306.896 392.953 307.009 392.954C307.123 392.955 307.233 392.919 307.322 392.85C307.715 392.548 308.143 392.407 308.608 392.428C308.755 392.434 308.898 392.472 309.027 392.542C309.155 392.611 309.267 392.71 309.351 392.829C309.436 392.949 309.492 393.086 309.515 393.23C309.538 393.375 309.528 393.523 309.485 393.663C309.284 394.311 308.971 394.88 308.544 395.371Z" fill="#EFDB28"/>
<path d="M344.015 394.994C345.175 393.595 346.653 393.038 348.448 393.324C351.749 393.842 353.265 397.22 352.267 400.181C350.911 404.22 348.177 407.261 344.066 409.304C343.81 409.427 343.555 409.425 343.299 409.297C339.524 407.391 335.533 403.354 334.944 398.94C334.688 396.989 335.59 394.878 337.343 393.938C339.629 392.71 341.684 393.068 343.51 395.013C343.685 395.196 343.853 395.19 344.015 394.994Z" fill="#F24040"/>
<path d="M308.295 396.516C309.724 398.678 311.18 400.791 312.665 402.855C313.01 403.333 313.338 404.576 313.65 406.585C313.687 406.81 313.792 407.015 313.95 407.173C315.307 408.529 315.326 410.487 313.797 411.651C312.383 412.739 311.993 414.203 309.895 414.21C306.743 414.223 303.589 414.225 300.434 414.216C299.807 414.216 298.854 413.852 298.329 413.327C297.758 412.756 297.216 412.178 296.704 411.594C296.09 410.894 295.986 410.031 296.391 409.003C296.467 408.798 296.446 408.608 296.327 408.433C295.209 406.8 295.252 405.399 296.455 404.231C297.384 403.327 297.947 402.732 298.143 402.446C299.457 400.527 300.856 398.563 302.34 396.554L308.295 396.516ZM304.336 410.314L304.496 411.197C304.51 411.283 304.542 411.366 304.59 411.44C304.639 411.514 304.702 411.577 304.777 411.626C305.118 411.847 305.468 411.843 305.826 411.613C305.975 411.519 306.065 411.385 306.095 411.21L306.216 410.468C306.259 410.19 306.417 410.018 306.69 409.95C309.345 409.246 309.741 406.137 306.984 405.017C306.071 404.651 305.14 404.256 304.189 403.834C304.067 403.781 303.959 403.701 303.874 403.6C303.788 403.499 303.726 403.38 303.692 403.252C303.659 403.123 303.656 402.988 303.682 402.857C303.708 402.727 303.763 402.604 303.843 402.497C303.946 402.361 304.076 402.25 304.233 402.164C305.044 401.712 305.839 401.742 306.619 402.254C307.084 402.561 307.579 402.753 308.104 402.83C308.162 402.837 308.222 402.83 308.277 402.809C308.331 402.788 308.38 402.753 308.417 402.708C308.532 402.576 308.596 402.401 308.609 402.184C308.63 401.74 308.436 401.431 308.027 401.256L306.485 400.604C306.336 400.54 306.242 400.431 306.204 400.277C306.178 400.162 306.17 400.043 306.178 399.919C306.195 399.706 306.138 399.516 306.005 399.35C305.775 399.047 305.44 398.962 305.001 399.094C304.766 399.162 304.604 399.299 304.515 399.503C304.417 399.712 304.37 399.945 304.374 400.2C304.378 400.409 304.285 400.559 304.093 400.648C303.415 400.955 302.711 401.262 302.34 401.947C300.83 404.73 304.681 405.772 306.549 406.534C306.699 406.595 306.833 406.691 306.939 406.814C307.045 406.937 307.121 407.084 307.16 407.242C307.198 407.4 307.199 407.564 307.162 407.723C307.125 407.881 307.051 408.028 306.946 408.152C305.986 409.284 304.105 408.798 302.967 407.979C302.707 407.796 302.491 407.7 302.321 407.691C302.005 407.679 301.783 407.815 301.655 408.101C301.604 408.217 301.586 408.346 301.606 408.472C301.625 408.598 301.68 408.715 301.764 408.811C302.284 409.412 303.012 409.787 303.945 409.937C304.043 409.951 304.132 409.995 304.202 410.063C304.272 410.131 304.319 410.219 304.336 410.314Z" fill="#EFDB28"/>
<path d="M303.945 409.937C303.011 409.788 302.284 409.412 301.764 408.811C301.68 408.715 301.625 408.598 301.605 408.472C301.586 408.346 301.603 408.217 301.655 408.101C301.783 407.815 302.005 407.679 302.32 407.691C302.491 407.7 302.706 407.796 302.966 407.979C304.105 408.798 305.986 409.284 306.945 408.152C307.05 408.028 307.124 407.881 307.162 407.723C307.199 407.564 307.198 407.4 307.159 407.242C307.121 407.084 307.045 406.938 306.939 406.814C306.833 406.691 306.699 406.595 306.549 406.534C304.681 405.772 300.83 404.73 302.339 401.947C302.71 401.263 303.414 400.955 304.092 400.648C304.284 400.559 304.378 400.41 304.374 400.201C304.369 399.945 304.416 399.712 304.514 399.503C304.604 399.299 304.766 399.162 305.001 399.094C305.44 398.962 305.775 399.047 306.005 399.35C306.137 399.516 306.195 399.706 306.178 399.919C306.169 400.043 306.178 400.162 306.203 400.277C306.242 400.431 306.335 400.54 306.485 400.604L308.026 401.256C308.436 401.431 308.63 401.74 308.609 402.184C308.596 402.401 308.532 402.576 308.417 402.708C308.379 402.753 308.331 402.788 308.276 402.809C308.221 402.83 308.162 402.837 308.103 402.83C307.579 402.753 307.084 402.561 306.619 402.254C305.839 401.742 305.043 401.712 304.233 402.164C304.075 402.25 303.945 402.361 303.843 402.497C303.763 402.604 303.707 402.727 303.681 402.858C303.655 402.988 303.659 403.123 303.692 403.252C303.725 403.38 303.787 403.5 303.873 403.6C303.959 403.701 304.067 403.781 304.188 403.834C305.139 404.256 306.071 404.651 306.984 405.018C309.741 406.137 309.344 409.246 306.689 409.95C306.417 410.018 306.259 410.191 306.216 410.468L306.094 411.21C306.065 411.385 305.975 411.519 305.826 411.613C305.468 411.843 305.118 411.847 304.777 411.626C304.702 411.577 304.639 411.514 304.59 411.44C304.542 411.366 304.509 411.284 304.495 411.197L304.335 410.314C304.319 410.219 304.272 410.131 304.202 410.063C304.132 409.996 304.042 409.951 303.945 409.937Z" fill="#7DDC32"/>
<path d="M173.172 271.206C173.295 271.496 173.291 271.848 173.159 272.261L125.77 272.242C125.629 272.208 125.529 272.159 125.469 272.095C125.414 272.04 125.403 271.944 125.437 271.807C125.484 271.598 125.504 271.413 125.495 271.251L173.172 271.206Z" fill="white"/>
<path d="M234.378 213.563L229.292 213.55C228.994 213.548 228.708 213.431 228.496 213.223C228.283 213.015 228.16 212.733 228.154 212.437L228.147 212.155C228.122 211.179 228.599 210.688 229.58 210.684L238.101 210.665C239.227 210.665 239.788 211.226 239.783 212.347L239.751 220.817C239.747 221.708 239.301 222.222 238.414 222.358C237.967 222.427 237.525 222.171 237.09 221.591C236.928 221.375 236.843 221.112 236.847 220.842L236.898 216.16C236.903 215.763 236.764 215.703 236.483 215.981L232.229 220.209C231.985 220.448 231.951 220.714 232.126 221.009C233.525 223.371 233.768 225.76 232.855 228.173C229.772 236.349 217.899 234.935 216.85 226.165C216.415 222.486 218.449 219.154 221.885 217.682C224.392 216.608 226.974 216.81 229.631 218.29C229.798 218.384 229.949 218.365 230.086 218.232L234.506 213.87C234.531 213.845 234.549 213.812 234.556 213.777C234.563 213.742 234.56 213.706 234.546 213.673C234.532 213.64 234.509 213.612 234.479 213.592C234.449 213.572 234.414 213.562 234.378 213.563ZM230.45 225.339C230.45 224.637 230.312 223.942 230.043 223.293C229.774 222.644 229.38 222.055 228.884 221.558C228.387 221.061 227.798 220.667 227.149 220.399C226.5 220.13 225.805 219.992 225.102 219.992C224.4 219.992 223.705 220.13 223.056 220.399C222.407 220.667 221.817 221.061 221.321 221.558C220.824 222.055 220.43 222.644 220.162 223.293C219.893 223.942 219.754 224.637 219.754 225.339C219.754 226.758 220.318 228.118 221.321 229.121C222.324 230.124 223.684 230.687 225.102 230.687C226.521 230.687 227.881 230.124 228.884 229.121C229.887 228.118 230.45 226.758 230.45 225.339Z" fill="#2F72F3"/>
<path d="M249.487 271.219L249.449 272.261H200.634L200.755 271.212L249.487 271.219Z" fill="white"/>
<path d="M175.5 526C176.881 526 178 524.881 178 523.5C178 522.119 176.881 521 175.5 521C174.119 521 173 522.119 173 523.5C173 524.881 174.119 526 175.5 526Z" fill="white"/>
<path d="M256.442 289.559L257.804 290.979L169.98 378.796C169.605 378.702 169.157 378.253 168.637 377.447L256.442 289.559Z" fill="#F24040"/>
<path d="M276.943 196.598V245.298L275.798 245.317L275.804 196.56C276.41 196.483 276.789 196.496 276.943 196.598Z" fill="white"/>
<defs>
<filter id="filter0_d_2402_1395" x="0.442383" y="0.275391" width="550.904" height="550.917" filterUnits="userSpaceOnUse" color-interpolation-filters="sRGB">
<feFlood flood-opacity="0" result="BackgroundImageFix"/>
<feColorMatrix in="SourceAlpha" type="matrix" values="0 0 0 0 0 0 0 0 0 0 0 0 0 0 0 0 0 0 127 0" result="hardAlpha"/>
<feOffset dy="4"/>
<feGaussianBlur stdDeviation="2"/>
<feComposite in2="hardAlpha" operator="out"/>
<feColorMatrix type="matrix" values="0 0 0 0 0 0 0 0 0 0 0 0 0 0 0 0 0 0 0.25 0"/>
<feBlend mode="normal" in2="BackgroundImageFix" result="effect1_dropShadow_2402_1395"/>
<feBlend mode="normal" in="SourceGraphic" in2="effect1_dropShadow_2402_1395" result="shape"/>
</filter>
</defs>
</svg>
