<svg width="17" height="27" viewBox="0 0 17 27" fill="none" xmlns="http://www.w3.org/2000/svg">
<path d="M10.5542 19.3138H13.0106C13.7058 19.3138 14.2602 19.5932 14.6739 20.1518C14.9255 20.493 14.9297 20.8363 14.6866 21.1817C14.1962 21.8769 13.5246 22.2244 12.6716 22.2244L10.4902 22.218C10.2472 22.218 10.1235 22.3396 10.1192 22.5827L10.1064 24.8024C10.1051 24.9917 10.0629 25.1786 9.98286 25.3501C9.90281 25.5215 9.78677 25.6736 9.64271 25.7958C9.49865 25.918 9.32995 26.0074 9.14829 26.0579C8.96663 26.1083 8.77631 26.1187 8.59036 26.0882L8.21932 26.0242C7.95235 25.9807 7.70924 25.8439 7.53261 25.6381C7.35599 25.4322 7.25712 25.1703 7.25337 24.8984L7.2342 22.653C7.2342 22.3716 7.09345 22.2287 6.81198 22.2244L3.91417 22.1989C3.72466 22.1981 3.5372 22.1595 3.36275 22.0854C3.1883 22.0114 3.03034 21.9033 2.89813 21.7675C2.76592 21.6317 2.66211 21.471 2.59273 21.2946C2.52334 21.1182 2.48977 20.9298 2.49402 20.7403C2.49402 20.6209 2.50258 20.4994 2.51964 20.3757C2.5551 20.094 2.69114 19.8347 2.90274 19.6454C3.11434 19.4562 3.38722 19.3497 3.67108 19.3458L6.83119 19.301C7.0956 19.2967 7.23845 19.1624 7.25977 18.898C7.30669 18.3692 7.26617 17.8809 7.13823 17.4331C7.08705 17.2455 6.96765 17.1239 6.78 17.0685C3.70946 16.2113 1.72213 14.3796 0.818022 11.5735C-2.0926 2.52815 9.89532 -3.31867 15.3711 4.26813C18.8767 9.12343 16.19 15.6548 10.5094 17.0429C10.2493 17.1026 10.1192 17.2668 10.1192 17.5354V18.8788C10.1149 19.1688 10.26 19.3138 10.5542 19.3138ZM14.0214 9.00191C14.0214 7.58017 13.4566 6.21666 12.4513 5.21134C11.4459 4.20602 10.0824 3.64122 8.66071 3.64122C7.95674 3.64122 7.25965 3.77989 6.60926 4.04929C5.95888 4.31869 5.36795 4.71356 4.87016 5.21134C4.37238 5.70912 3.9775 6.30007 3.7081 6.95046C3.4387 7.60084 3.30005 8.29794 3.30005 9.00191C3.30005 9.70588 3.4387 10.4029 3.7081 11.0533C3.9775 11.7037 4.37238 12.2947 4.87016 12.7925C5.36795 13.2902 5.95888 13.6851 6.60926 13.9545C7.25965 14.2239 7.95674 14.3626 8.66071 14.3626C10.0824 14.3626 11.4459 13.7978 12.4513 12.7925C13.4566 11.7871 14.0214 10.4236 14.0214 9.00191Z" fill="#F24040"/>
</svg>
