<svg width="77" height="78" viewBox="0 0 77 78" fill="none" xmlns="http://www.w3.org/2000/svg">
<path d="M73.3948 30.079C75.6584 32.344 76.9299 35.4151 76.9299 38.6173C76.9299 41.8194 75.6584 44.8906 73.3948 47.1556L47.0449 73.5055C44.7799 75.7691 41.7088 77.0406 38.5066 77.0406C35.3044 77.0406 32.2333 75.7691 29.9683 73.5055L3.61841 47.1556C2.49634 46.0339 1.60624 44.7022 0.998955 43.2364C0.391671 41.7707 0.0791016 40.1996 0.0791016 38.6131C0.0791016 37.0265 0.391671 35.4555 0.998955 33.9897C1.60624 32.524 2.49634 31.1922 3.61841 30.0706L29.9683 3.72066C32.2333 1.45709 35.3044 0.185547 38.5066 0.185547C41.7088 0.185547 44.7799 1.45709 47.0449 3.72066L73.3948 30.079Z" fill="#FFEC85"/>
</svg>
