<svg width="27" height="25" viewBox="0 0 27 25" fill="none" xmlns="http://www.w3.org/2000/svg">
<path fill-rule="evenodd" clip-rule="evenodd" d="M23.5765 24.3134H2.54357C2.13353 24.2888 1.73709 24.1572 1.39372 23.9317C1.05035 23.7062 0.77202 23.3947 0.58644 23.0283C0.261405 22.4636 0.090332 21.8235 0.090332 21.1719C0.090332 20.5204 0.261405 19.8803 0.58644 19.3156L5.49187 10.5967C7.6758 6.74962 9.86812 2.88575 10.4057 1.98698C10.7344 1.61217 11.1394 1.31186 11.5935 1.10612C12.0477 0.900374 12.5405 0.793945 13.039 0.793945C13.5376 0.793945 14.0304 0.900374 14.4845 1.10612C14.9386 1.31186 15.3436 1.61217 15.6723 1.98698C16.5459 3.54933 24.7944 18.1564 25.5 19.3156C25.8468 19.8558 26.0416 20.4795 26.0637 21.121C26.0859 21.7626 25.9347 22.3982 25.626 22.9611C25.4333 23.3467 25.1425 23.6748 24.7826 23.9122C24.4228 24.1496 24.0068 24.288 23.5765 24.3134V24.3134Z" fill="url(#paint0_linear_406_57711)"/>
<defs>
<linearGradient id="paint0_linear_406_57711" x1="0.090332" y1="12.5537" x2="26.0659" y2="12.5537" gradientUnits="userSpaceOnUse">
<stop stop-color="#1D976C"/>
<stop offset="1" stop-color="#93F9B9"/>
</linearGradient>
</defs>
</svg>
