<svg width="26" height="25" viewBox="0 0 26 25" fill="none" xmlns="http://www.w3.org/2000/svg">
<path fill-rule="evenodd" clip-rule="evenodd" d="M18.492 24.3135H7.8244C7.07269 24.2875 6.34583 24.0378 5.73682 23.5964C5.12781 23.1549 4.66435 22.5419 4.40572 21.8356L1.12143 11.7055C0.911932 10.9849 0.923196 10.218 1.15377 9.5038C1.38434 8.78962 1.82364 8.16093 2.41499 7.69884L11.0331 1.43265C11.6564 1.01376 12.3904 0.790039 13.1414 0.790039C13.8924 0.790039 14.6264 1.01376 15.2497 1.43265L23.8595 7.69044C24.4528 8.15492 24.8938 8.78614 25.1257 9.50306C25.3577 10.22 25.3702 10.9899 25.1614 11.7139L21.8687 21.844C21.6124 22.5429 21.155 23.1503 20.5542 23.5898C19.9533 24.0293 19.2358 24.2811 18.492 24.3135V24.3135Z" fill="url(#paint0_linear_406_57715)"/>
<defs>
<linearGradient id="paint0_linear_406_57715" x1="0.972168" y1="12.5518" x2="25.3093" y2="12.5518" gradientUnits="userSpaceOnUse">
<stop stop-color="#4776E6"/>
<stop offset="1" stop-color="#8E54E9"/>
</linearGradient>
</defs>
</svg>
