<svg xmlns="http://www.w3.org/2000/svg">
    <symbol id='moon' viewBox="0 0 43 43" fill="none">
        <g clip-path="url(#clip0_406_51054)">
            <path
                d="M17.5977 4.00975C16.2185 7.00374 15.79 10.3485 16.3699 13.5935C16.9499 16.8385 18.5104 19.8278 20.8413 22.1587C23.1722 24.4896 26.1615 26.0501 29.4065 26.63C32.6515 27.21 35.9963 26.7815 38.9902 25.4023C37.2093 33.4218 30.0552 39.4167 21.5 39.4167C11.6046 39.4167 3.58333 31.3954 3.58333 21.5C3.58333 12.9448 9.57824 5.79067 17.5977 4.00975ZM32.5438 4.10471L34.0417 4.47917V6.27083L32.5438 6.64529C31.9139 6.80284 31.3386 7.1286 30.8794 7.58776C30.4203 8.04692 30.0945 8.62222 29.937 9.25217L29.5625 10.75H27.7708L27.3964 9.25217C27.2388 8.62222 26.9131 8.04692 26.4539 7.58776C25.9947 7.1286 25.4194 6.80284 24.7895 6.64529L23.2917 6.27083V4.47917L24.7895 4.10471C25.4191 3.94688 25.994 3.62099 26.4529 3.16185C26.9117 2.70271 27.2372 2.12756 27.3946 1.49783L27.7708 0H29.5625L29.937 1.49783C30.0945 2.12778 30.4203 2.70308 30.8794 3.16224C31.3386 3.6214 31.9139 3.94716 32.5438 4.10471ZM41.5022 13.063L43 13.4375V15.2292L41.5022 15.6036C40.8722 15.7612 40.2969 16.0869 39.8378 16.5461C39.3786 17.0053 39.0528 17.5806 38.8953 18.2105L38.5208 19.7083H36.7292L36.3547 18.2105C36.1972 17.5806 35.8714 17.0053 35.4122 16.5461C34.9531 16.0869 34.3778 15.7612 33.7478 15.6036L32.25 15.2292V13.4375L33.7478 13.063C34.3778 12.9055 34.9531 12.5797 35.4122 12.1206C35.8714 11.6614 36.1972 11.0861 36.3547 10.4562L36.7292 8.95833H38.5208L38.8953 10.4562C39.0528 11.0861 39.3786 11.6614 39.8378 12.1206C40.2969 12.5797 40.8722 12.9055 41.5022 13.063Z"
                fill="url(#paint0_linear_406_51054)" />
        </g>
        <defs>
            <linearGradient id="paint0_linear_406_51054" x1="3.58333" y1="19.7083" x2="43"
                y2="19.7083" gradientUnits="userSpaceOnUse">
                <stop stop-color="#00C6FF" />
                <stop offset="1" stop-color="#0072FF" />
            </linearGradient>
            <clipPath id="clip0_406_51054">
                <rect width="43" height="43" fill="white" />
            </clipPath>
        </defs>
    </symbol>
    <symbol id='sun' viewBox="0 0 43 43" fill="none">
        <path
            d="M21.5 3.5835C21.8564 3.5835 22.1982 3.72507 22.4502 3.97707C22.7022 4.22907 22.8438 4.57086 22.8438 4.92725V7.61475C22.8438 7.97113 22.7022 8.31292 22.4502 8.56492C22.1982 8.81692 21.8564 8.9585 21.5 8.9585C21.1436 8.9585 20.8018 8.81692 20.5498 8.56492C20.2978 8.31292 20.1563 7.97113 20.1563 7.61475V4.92725C20.1563 4.57086 20.2978 4.22907 20.5498 3.97707C20.8018 3.72507 21.1436 3.5835 21.5 3.5835ZM30.4583 21.5002C30.4583 23.8761 29.5145 26.1546 27.8345 27.8347C26.1545 29.5147 23.8759 30.4585 21.5 30.4585C19.1241 30.4585 16.8455 29.5147 15.1655 27.8347C13.4855 26.1546 12.5417 23.8761 12.5417 21.5002C12.5417 19.1243 13.4855 16.8457 15.1655 15.1657C16.8455 13.4857 19.1241 12.5418 21.5 12.5418C23.8759 12.5418 26.1545 13.4857 27.8345 15.1657C29.5145 16.8457 30.4583 19.1243 30.4583 21.5002ZM38.0729 22.8439C38.4293 22.8439 38.7711 22.7023 39.0231 22.4503C39.2751 22.1983 39.4167 21.8565 39.4167 21.5002C39.4167 21.1438 39.2751 20.802 39.0231 20.55C38.7711 20.298 38.4293 20.1564 38.0729 20.1564H35.3854C35.029 20.1564 34.6872 20.298 34.4352 20.55C34.1832 20.802 34.0417 21.1438 34.0417 21.5002C34.0417 21.8565 34.1832 22.1983 34.4352 22.4503C34.6872 22.7023 35.029 22.8439 35.3854 22.8439H38.0729ZM21.5 34.0418C21.8564 34.0418 22.1982 34.1834 22.4502 34.4354C22.7022 34.6874 22.8438 35.0292 22.8438 35.3856V38.0731C22.8438 38.4295 22.7022 38.7713 22.4502 39.0233C22.1982 39.2753 21.8564 39.4168 21.5 39.4168C21.1436 39.4168 20.8018 39.2753 20.5498 39.0233C20.2978 38.7713 20.1563 38.4295 20.1563 38.0731V35.3856C20.1563 35.0292 20.2978 34.6874 20.5498 34.4354C20.8018 34.1834 21.1436 34.0418 21.5 34.0418ZM7.61459 22.8439C7.97097 22.8439 8.31276 22.7023 8.56476 22.4503C8.81676 22.1983 8.95834 21.8565 8.95834 21.5002C8.95834 21.1438 8.81676 20.802 8.56476 20.55C8.31276 20.298 7.97097 20.1564 7.61459 20.1564H4.92709C4.5707 20.1564 4.22891 20.298 3.97691 20.55C3.72491 20.802 3.58334 21.1438 3.58334 21.5002C3.58334 21.8565 3.72491 22.1983 3.97691 22.4503C4.22891 22.7023 4.5707 22.8439 4.92709 22.8439H7.61459ZM7.56084 7.561C7.81279 7.30936 8.15432 7.16801 8.51042 7.16801C8.86651 7.16801 9.20805 7.30936 9.46 7.561L12.1475 10.2485C12.3849 10.5032 12.5141 10.8401 12.5079 11.1883C12.5018 11.5364 12.3608 11.8685 12.1146 12.1147C11.8684 12.3609 11.5362 12.502 11.1881 12.5081C10.84 12.5142 10.5031 12.385 10.2483 12.1477L7.56084 9.46016C7.3092 9.20821 7.16785 8.86667 7.16785 8.51058C7.16785 8.15448 7.3092 7.81295 7.56084 7.561ZM9.46 35.4393C9.33698 35.5714 9.18863 35.6772 9.0238 35.7507C8.85897 35.8241 8.68103 35.8636 8.50061 35.8668C8.32018 35.87 8.14096 35.8368 7.97364 35.7692C7.80632 35.7016 7.65433 35.601 7.52673 35.4734C7.39913 35.3458 7.29853 35.1938 7.23095 35.0265C7.16337 34.8592 7.13018 34.68 7.13336 34.4996C7.13654 34.3191 7.17603 34.1412 7.24948 33.9764C7.32292 33.8115 7.42881 33.6632 7.56084 33.5402L10.2483 30.8527C10.3714 30.7206 10.5197 30.6147 10.6845 30.5413C10.8494 30.4679 11.0273 30.4284 11.2077 30.4252C11.3882 30.422 11.5674 30.4552 11.7347 30.5228C11.902 30.5904 12.054 30.691 12.1816 30.8186C12.3092 30.9462 12.4098 31.0981 12.4774 31.2655C12.545 31.4328 12.5782 31.612 12.575 31.7924C12.5718 31.9729 12.5323 32.1508 12.4589 32.3156C12.3854 32.4805 12.2795 32.6288 12.1475 32.7518L9.46 35.4393ZM35.4392 7.561C35.1872 7.30936 34.8457 7.16801 34.4896 7.16801C34.1335 7.16801 33.792 7.30936 33.54 7.561L30.8525 10.2485C30.6151 10.5032 30.4859 10.8401 30.4921 11.1883C30.4982 11.5364 30.6392 11.8685 30.8854 12.1147C31.1316 12.3609 31.4638 12.502 31.8119 12.5081C32.16 12.5142 32.4969 12.385 32.7517 12.1477L35.4392 9.46016C35.6908 9.20821 35.8322 8.86667 35.8322 8.51058C35.8322 8.15448 35.6908 7.81295 35.4392 7.561ZM33.54 35.4393C33.663 35.5714 33.8114 35.6772 33.9762 35.7507C34.141 35.8241 34.319 35.8636 34.4994 35.8668C34.6798 35.87 34.859 35.8368 35.0264 35.7692C35.1937 35.7016 35.3457 35.601 35.4733 35.4734C35.6009 35.3458 35.7015 35.1938 35.7691 35.0265C35.8366 34.8592 35.8698 34.68 35.8666 34.4996C35.8635 34.3191 35.824 34.1412 35.7505 33.9764C35.6771 33.8115 35.5712 33.6632 35.4392 33.5402L32.7517 30.8527C32.6287 30.7206 32.4803 30.6147 32.3155 30.5413C32.1506 30.4679 31.9727 30.4284 31.7923 30.4252C31.6118 30.422 31.4326 30.4552 31.2653 30.5228C31.098 30.5904 30.946 30.691 30.8184 30.8186C30.6908 30.9462 30.5902 31.0981 30.5226 31.2655C30.455 31.4328 30.4218 31.612 30.425 31.7924C30.4282 31.9729 30.4677 32.1508 30.5411 32.3156C30.6146 32.4805 30.7205 32.6288 30.8525 32.7518L33.54 35.4393Z"
            fill="white" fill-opacity="0.2" />
    </symbol>
    <symbol id='block-icon' viewBox="0 0 24 25" fill="none">
        <path
            d="M18 8.5H17V6.5C17 3.74 14.76 1.5 12 1.5C9.24 1.5 7 3.74 7 6.5V8.5H6C4.9 8.5 4 9.4 4 10.5V20.5C4 21.6 4.9 22.5 6 22.5H18C19.1 22.5 20 21.6 20 20.5V10.5C20 9.4 19.1 8.5 18 8.5ZM12 17.5C10.9 17.5 10 16.6 10 15.5C10 14.4 10.9 13.5 12 13.5C13.1 13.5 14 14.4 14 15.5C14 16.6 13.1 17.5 12 17.5ZM15.1 8.5H8.9V6.5C8.9 4.79 10.29 3.4 12 3.4C13.71 3.4 15.1 4.79 15.1 6.5V8.5Z"
            fill="white" />
    </symbol>
    <symbol id='star' viewBox="0 0 18 17" fill="none">
        <path
            d="M8.55696 13.6975L12.707 16.2075C13.467 16.6675 14.397 15.9875 14.197 15.1275L13.097 10.4075L16.767 7.2275C17.437 6.6475 17.077 5.5475 16.197 5.4775L11.367 5.0675L9.47696 0.6075C9.13696 -0.2025 7.97696 -0.2025 7.63696 0.6075L5.74696 5.0575L0.916957 5.4675C0.0369575 5.5375 -0.323043 6.6375 0.346957 7.2175L4.01696 10.3975L2.91696 15.1175C2.71696 15.9775 3.64696 16.6575 4.40696 16.1975L8.55696 13.6975Z"
            fill="url(#paint0_linear_2425_1214)" />
        <defs>
            <linearGradient id="paint0_linear_2425_1214" x1="8.91563" y1="-14.977" x2="0.308371"
                y2="13.9126" gradientUnits="userSpaceOnUse">
                <stop stop-color="#FFD079" />
                <stop offset="0.510417" stop-color="#FFE8BF" />
                <stop offset="1" stop-color="#FFD079" />
            </linearGradient>
        </defs>
    </symbol>
    <symbol id='ask' viewBox="0 0 17 17" fill="none">
        <path
            d="M8.49996 15.5834C4.58783 15.5834 1.41663 12.4122 1.41663 8.50008C1.41663 4.58796 4.58783 1.41675 8.49996 1.41675C12.4121 1.41675 15.5833 4.58796 15.5833 8.50008C15.5833 12.4122 12.4121 15.5834 8.49996 15.5834ZM8.49996 14.1667C10.0029 14.1667 11.4442 13.5697 12.5069 12.507C13.5696 11.4443 14.1666 10.003 14.1666 8.50008C14.1666 6.99719 13.5696 5.55585 12.5069 4.49314C11.4442 3.43044 10.0029 2.83341 8.49996 2.83341C6.99707 2.83341 5.55573 3.43044 4.49302 4.49314C3.43032 5.55585 2.83329 6.99719 2.83329 8.50008C2.83329 10.003 3.43032 11.4443 4.49302 12.507C5.55573 13.5697 6.99707 14.1667 8.49996 14.1667ZM7.79163 10.6251H9.20829V12.0417H7.79163V10.6251ZM9.20829 9.45987V9.91675H7.79163V8.85425C7.79163 8.66639 7.86625 8.48622 7.99909 8.35338C8.13193 8.22054 8.3121 8.14592 8.49996 8.14592C8.70118 8.1459 8.89826 8.08875 9.06827 7.98111C9.23828 7.87346 9.37423 7.71976 9.4603 7.53787C9.54636 7.35598 9.57901 7.1534 9.55444 6.95368C9.52987 6.75396 9.44909 6.56533 9.32151 6.40973C9.19392 6.25413 9.02477 6.13795 8.83374 6.07473C8.64271 6.0115 8.43765 6.00382 8.24243 6.05258C8.0472 6.10134 7.86984 6.20454 7.73097 6.35016C7.5921 6.49578 7.49744 6.67785 7.458 6.87517L6.06825 6.59679C6.15441 6.16618 6.35336 5.76618 6.64478 5.43766C6.93619 5.10915 7.30962 4.86391 7.72688 4.72702C8.14414 4.59012 8.59026 4.56648 9.01965 4.65852C9.44904 4.75055 9.84629 4.95495 10.1708 5.25083C10.4953 5.54671 10.7354 5.92345 10.8666 6.34254C10.9978 6.76163 11.0153 7.20804 10.9174 7.63613C10.8195 8.06422 10.6097 8.45864 10.3094 8.77907C10.0091 9.09949 9.62914 9.33443 9.20829 9.45987Z"
            fill="white" />
    </symbol>
    <symbol id='check' viewBox="0 0 22 23">
        <circle cx="11.2018" cy="11.3674" r="10.0339" stroke-width="1.46837" />
        <path
            d="M10.6828 14.8235C10.9695 15.1102 11.4343 15.1102 11.7211 14.8235L16.3934 10.1512C16.6801 9.86445 16.6801 9.39959 16.3934 9.11287C16.1067 8.82615 15.6418 8.82615 15.3551 9.11287L11.2019 13.2661L7.04872 9.11287C6.762 8.82615 6.29714 8.82615 6.01042 9.11287C5.7237 9.39959 5.7237 9.86445 6.01042 10.1512L10.6828 14.8235ZM10.4677 13.3254V14.3044H11.9361V13.3254H10.4677Z"
        />
    </symbol>
    <symbol id='arrow-right' viewBox="0 0 18 12">
        <path fill-rule="evenodd" clip-rule="evenodd"
            d="M0.116064 5.88567C0.116064 6.03877 0.174719 6.18561 0.279123 6.29387C0.383529 6.40213 0.525131 6.46295 0.672783 6.46295L16.0301 6.46295L12.5261 10.0952C12.4216 10.2036 12.3629 10.3506 12.3629 10.5039C12.3629 10.6572 12.4216 10.8042 12.5261 10.9126C12.6307 11.021 12.7725 11.0819 12.9203 11.0819C13.0681 11.0819 13.2099 11.021 13.3144 10.9126L17.7682 6.29438C17.8201 6.24076 17.8612 6.17705 17.8892 6.10692C17.9173 6.03679 17.9318 5.9616 17.9318 5.88567C17.9318 5.80974 17.9173 5.73455 17.8892 5.66442C17.8612 5.59428 17.8201 5.53058 17.7682 5.47695L13.3144 0.858717C13.2627 0.805044 13.2012 0.762468 13.1336 0.733421C13.066 0.704373 12.9935 0.689422 12.9203 0.689422C12.7725 0.689422 12.6307 0.750319 12.5261 0.858717C12.4216 0.967115 12.3629 1.11413 12.3629 1.26743C12.3629 1.42073 12.4216 1.56775 12.5261 1.67615L16.0301 5.30839L0.672783 5.30839C0.525131 5.30839 0.383529 5.36921 0.279123 5.47747C0.174719 5.58573 0.116064 5.73256 0.116064 5.88567Z"
        />
    </symbol>
    <symbol id='slider-prev' viewBox="0 0 12 20" fill="none">
        <path
            d="M11.5411 19.5598C11.8349 19.2778 12 18.8954 12 18.4967C12 18.098 11.8349 17.7157 11.5411 17.4337L3.78308 9.99092L11.5411 2.54815C11.8266 2.26457 11.9846 1.88476 11.981 1.49052C11.9774 1.09629 11.8126 0.719167 11.522 0.440389C11.2314 0.161613 10.8383 0.00348234 10.4274 5.67647e-05C10.0165 -0.00336882 9.62058 0.148185 9.32499 0.422075L0.458878 8.92789C0.165058 9.20985 -4.54938e-07 9.59222 -4.37511e-07 9.99092C-4.20083e-07 10.3896 0.165058 10.772 0.458878 11.054L9.32499 19.5598C9.6189 19.8416 10.0175 20 10.4331 20C10.8486 20 11.2472 19.8416 11.5411 19.5598Z"
            fill="white" />
    </symbol>
    <symbol id='slider-next' viewBox="0 0 12 20" fill="none">
        <path
            d="M0.458878 19.5598C0.165058 19.2778 -9.05392e-07 18.8954 -8.87964e-07 18.4967C-8.70537e-07 18.098 0.165058 17.7157 0.458878 17.4337L8.21692 9.99092L0.458878 2.54815C0.173385 2.26457 0.0154122 1.88476 0.0189837 1.49052C0.0225543 1.09629 0.187384 0.719167 0.47797 0.440389C0.768557 0.161613 1.16165 0.00348234 1.57259 5.67647e-05C1.98352 -0.00336882 2.37942 0.148185 2.67501 0.422075L11.5411 8.92789C11.8349 9.20985 12 9.59222 12 9.99092C12 10.3896 11.8349 10.772 11.5411 11.054L2.67501 19.5598C2.3811 19.8416 1.98253 20 1.56695 20C1.15136 20 0.752787 19.8416 0.458878 19.5598Z"
            fill="white" />
    </symbol>
    <symbol id='facebook' viewBox="0 0 16 16">
        <path
            d="M16 8C16 3.6 12.4 0 8 0C3.6 0 0 3.6 0 8C0 12 2.9 15.3 6.7 15.9V10.3H4.7V8H6.7V6.2C6.7 4.2 7.9 3.1 9.7 3.1C10.6 3.1 11.5 3.3 11.5 3.3V5.3H10.5C9.5 5.3 9.2 5.9 9.2 6.5V8H11.4L11 10.3H9.1V16C13.1 15.4 16 12 16 8Z"
        />
    </symbol>
    <symbol id='instagram' viewBox="0 0 18 18">
        <path
            d="M9.00001 2.2C11.2 2.2 11.5 2.2 12.4 2.2C13.2 2.2 13.6 2.4 13.9 2.5C14.3 2.7 14.6 2.8 14.9 3.1C15.2 3.4 15.4 3.7 15.5 4.1C15.6 4.4 15.7 4.8 15.8 5.6C15.8 6.5 15.8 6.7 15.8 9C15.8 11.3 15.8 11.5 15.8 12.4C15.8 13.2 15.6 13.6 15.5 13.9C15.3 14.3 15.2 14.6 14.9 14.9C14.6 15.2 14.3 15.4 13.9 15.5C13.6 15.6 13.2 15.7 12.4 15.8C11.5 15.8 11.3 15.8 9.00001 15.8C6.70001 15.8 6.50001 15.8 5.60001 15.8C4.80001 15.8 4.40001 15.6 4.10001 15.5C3.70001 15.3 3.40001 15.2 3.10001 14.9C2.80001 14.6 2.60001 14.3 2.50001 13.9C2.40001 13.6 2.30001 13.2 2.20001 12.4C2.20001 11.5 2.20001 11.3 2.20001 9C2.20001 6.7 2.20001 6.5 2.20001 5.6C2.20001 4.8 2.40001 4.4 2.50001 4.1C2.70001 3.7 2.80001 3.4 3.10001 3.1C3.40001 2.8 3.70001 2.6 4.10001 2.5C4.40001 2.4 4.80001 2.3 5.60001 2.2C6.50001 2.2 6.80001 2.2 9.00001 2.2ZM9.00001 0.699997C6.70001 0.699997 6.50001 0.699997 5.60001 0.699997C4.70001 0.699997 4.10001 0.899998 3.60001 1.1C3.10001 1.3 2.60001 1.6 2.10001 2.1C1.60001 2.6 1.40001 3 1.10001 3.6C0.900013 4.1 0.800012 4.7 0.700012 5.6C0.700012 6.5 0.700012 6.8 0.700012 9C0.700012 11.3 0.700012 11.5 0.700012 12.4C0.700012 13.3 0.900013 13.9 1.10001 14.4C1.30001 14.9 1.60001 15.4 2.10001 15.9C2.60001 16.4 3.00001 16.6 3.60001 16.9C4.10001 17.1 4.70001 17.2 5.60001 17.3C6.50001 17.3 6.80001 17.3 9.00001 17.3C11.2 17.3 11.5 17.3 12.4 17.3C13.3 17.3 13.9 17.1 14.4 16.9C14.9 16.7 15.4 16.4 15.9 15.9C16.4 15.4 16.6 15 16.9 14.4C17.1 13.9 17.2 13.3 17.3 12.4C17.3 11.5 17.3 11.2 17.3 9C17.3 6.8 17.3 6.5 17.3 5.6C17.3 4.7 17.1 4.1 16.9 3.6C16.7 3.1 16.4 2.6 15.9 2.1C15.4 1.6 15 1.4 14.4 1.1C13.9 0.899998 13.3 0.799997 12.4 0.699997C11.5 0.699997 11.3 0.699997 9.00001 0.699997Z"
        />
        <path
            d="M9.00001 4.7C6.60001 4.7 4.70001 6.6 4.70001 9C4.70001 11.4 6.60001 13.3 9.00001 13.3C11.4 13.3 13.3 11.4 13.3 9C13.3 6.6 11.4 4.7 9.00001 4.7ZM9.00001 11.8C7.50001 11.8 6.20001 10.6 6.20001 9C6.20001 7.5 7.40001 6.2 9.00001 6.2C10.5 6.2 11.8 7.4 11.8 9C11.8 10.5 10.5 11.8 9.00001 11.8Z"
        />
        <path
            d="M13.4 5.6C13.9523 5.6 14.4 5.15228 14.4 4.6C14.4 4.04771 13.9523 3.6 13.4 3.6C12.8477 3.6 12.4 4.04771 12.4 4.6C12.4 5.15228 12.8477 5.6 13.4 5.6Z"
        />
    </symbol>
    <symbol id='telegram' viewBox="0 0 16 14">
        <path
            d="M1.09992 5.7083C5.39487 3.83705 8.25885 2.60341 9.69185 2.00738C13.7834 0.30558 14.6335 0.00996026 15.1877 9.46359e-05C15.3095 -0.00194823 15.582 0.0282562 15.7586 0.171489C15.9076 0.292432 15.9486 0.455809 15.9683 0.570476C15.9879 0.685143 16.0123 0.946358 15.9929 1.15046C15.7712 3.48009 14.8118 9.13349 14.3237 11.7427C14.1172 12.8468 13.7105 13.217 13.3168 13.2532C12.4613 13.3319 11.8116 12.6878 10.9829 12.1446C9.68624 11.2946 8.95369 10.7654 7.69503 9.936C6.24042 8.97744 7.18338 8.4506 8.01236 7.58959C8.22931 7.36426 11.999 3.93546 12.0719 3.62441C12.0811 3.58551 12.0895 3.44051 12.0034 3.36394C11.9172 3.28737 11.7901 3.31355 11.6983 3.33438C11.5683 3.36389 9.4968 4.73307 5.48389 7.4419C4.89591 7.84565 4.36333 8.04237 3.88616 8.03207C3.36012 8.0207 2.34822 7.73463 1.59598 7.49011C0.673328 7.19019 -0.0599784 7.03162 0.00387615 6.52227C0.0371355 6.25697 0.402482 5.98564 1.09992 5.7083Z"
        />
    </symbol>
    <symbol id='whats-app' viewBox="0 0 16 16">
        <path fill-rule="evenodd" clip-rule="evenodd"
            d="M13.6 2.3C12.1 0.8 10.1 0 8 0C3.6 0 0 3.6 0 8C0 9.4 0.400006 10.8 1.10001 12L0 16L4.20001 14.9C5.40001 15.5 6.7 15.9 8 15.9C12.4 15.9 16 12.3 16 7.9C16 5.8 15.1 3.8 13.6 2.3ZM8 14.6C6.8 14.6 5.60001 14.3 4.60001 13.7L4.39999 13.6L1.89999 14.3L2.60001 11.9L2.39999 11.6C1.69999 10.5 1.39999 9.3 1.39999 8.1C1.39999 4.5 4.4 1.5 8 1.5C9.8 1.5 11.4 2.2 12.7 3.4C14 4.7 14.6 6.3 14.6 8.1C14.6 11.6 11.7 14.6 8 14.6ZM11.6 9.6C11.4 9.5 10.4 9 10.2 9C10 8.9 9.89999 8.9 9.79999 9.1C9.69999 9.3 9.30001 9.7 9.20001 9.9C9.10001 10 8.99999 10 8.79999 10C8.59999 9.9 8.00001 9.7 7.20001 9C6.60001 8.5 6.20001 7.8 6.10001 7.6C6.00001 7.4 6.10001 7.3 6.20001 7.2C6.30001 7.1 6.4 7 6.5 6.9C6.6 6.8 6.60001 6.7 6.70001 6.6C6.80001 6.5 6.70001 6.4 6.70001 6.3C6.70001 6.2 6.30001 5.2 6.10001 4.8C6.00001 4.5 5.80001 4.5 5.70001 4.5C5.60001 4.5 5.49999 4.5 5.29999 4.5C5.19999 4.5 4.99999 4.5 4.79999 4.7C4.59999 4.9 4.10001 5.4 4.10001 6.4C4.10001 7.4 4.79999 8.3 4.89999 8.5C4.99999 8.6 6.29999 10.7 8.29999 11.5C9.99999 12.2 10.3 12 10.7 12C11.1 12 11.9 11.5 12 11.1C12.2 10.6 12.2 10.2 12.1 10.2C12 9.7 11.8 9.7 11.6 9.6Z"
            fill="#F1DAB0" />
    </symbol>
    <symbol id='ok' viewBox="0 0 12 20">
        <path fill-rule="evenodd" clip-rule="evenodd"
            d="M10.8763 5.47025C10.8763 8.13947 8.70027 10.3155 6.03093 10.3155C3.33274 10.3155 1.15672 8.13947 1.15672 5.47025C1.15672 2.80101 3.33274 0.625 6.03093 0.625C8.70027 0.625 10.8763 2.80101 10.8763 5.47025ZM8.03294 5.47025C8.03294 4.36775 7.13347 3.46832 6.03093 3.46832C4.89947 3.46832 4 4.36775 4.02907 5.47025C4.02907 6.57277 4.92853 7.47213 6.03093 7.47213C7.13347 7.47213 8.03294 6.57277 8.03294 5.47025Z"
        />
        <path
            d="M10.7892 13.1299C9.91881 13.6811 8.96134 14.0583 7.97494 14.2904L10.7312 16.9596C11.2824 17.5109 11.2824 18.4103 10.7312 18.9616C10.18 19.5128 9.28054 19.5128 8.72934 18.9616L6.06 16.2923L3.39081 18.9616C3.10066 19.2227 2.7525 19.3677 2.37533 19.3677C1.99815 19.3677 1.64999 19.2517 1.35986 18.9616C0.808587 18.4103 0.808587 17.5109 1.35986 16.9596L4.05814 14.2613C3.07164 14.0292 2.1142 13.6521 1.2438 13.1008C0.576483 12.6947 0.37339 11.8243 0.750563 11.1569C1.18578 10.4896 2.05618 10.3156 2.72349 10.7217C4.6964 11.9693 7.27854 11.9693 9.25148 10.7217C9.91881 10.2865 10.8183 10.4896 11.2244 11.1569C11.6596 11.8243 11.4565 12.7236 10.7892 13.1299Z"
        />
    </symbol>
    <symbol id='vk' viewBox="0 0 22 15">
        <path
            d="M12.024 14.0502C4.72801 14.0502 0.568006 9.05821 0.397339 0.738206H4.06667C4.18401 6.83954 6.87201 9.42087 9.00534 9.95421V0.738206H12.4507V5.99687C14.552 5.77287 16.7707 3.37287 17.5173 0.727539H20.952C20.672 2.09689 20.1125 3.39378 19.3087 4.53717C18.5048 5.68057 17.4738 6.6459 16.28 7.37287C17.6122 8.03594 18.7887 8.97389 19.7319 10.1249C20.6751 11.2758 21.3636 12.6137 21.752 14.0502H17.9653C17.1547 11.5222 15.128 9.55954 12.4507 9.29287V14.0502H12.0347H12.024Z"
        />
    </symbol>
    <symbol id='close'
        fill='white'
        viewBox="0 0 50 50">
        <path
            d="M 7.7070312 6.2929688 L 6.2929688 7.7070312 L 23.585938 25 L 6.2929688 42.292969 L 7.7070312 43.707031 L 25 26.414062 L 42.292969 43.707031 L 43.707031 42.292969 L 26.414062 25 L 43.707031 7.7070312 L 42.292969 6.2929688 L 25 23.585938 L 7.7070312 6.2929688 z"></path>
    </symbol>
    <symbol id='sidebar-home' viewBox="0 0 25 25">
        <path
            d="M24.3255 10.8738C24.3249 10.8732 24.3243 10.8727 24.3238 10.8721L14.1257 0.674438C13.6911 0.239563 13.1131 0 12.4984 0C11.8837 0 11.3057 0.239372 10.8709 0.674248L0.678172 10.8667C0.674739 10.8702 0.671305 10.8738 0.667872 10.8772C-0.224767 11.775 -0.223241 13.2317 0.672259 14.1272C1.08139 14.5365 1.62174 14.7736 2.19947 14.7984C2.22293 14.8006 2.24658 14.8018 2.27043 14.8018H2.67688V22.3066C2.67688 23.7917 3.88519 25 5.37063 25H9.36042C9.76478 25 10.0928 24.6721 10.0928 24.2676V18.3838C10.0928 17.7061 10.6441 17.1549 11.3217 17.1549H13.675C14.3527 17.1549 14.9039 17.7061 14.9039 18.3838V24.2676C14.9039 24.6721 15.2318 25 15.6364 25H19.6262C21.1116 25 22.3199 23.7917 22.3199 22.3066V14.8018H22.6968C23.3113 14.8018 23.8893 14.5624 24.3243 14.1275C25.2208 13.2305 25.2212 11.7714 24.3255 10.8738Z"
            fill="#B1B1B1" />

    </symbol>
    <symbol id='sidebar-transfer' viewBox="0 0 25 25">
        <path
            d="M5.20825 22.9168C5.20891 23.4692 5.42861 23.9987 5.81917 24.3892C6.20973 24.7798 6.73925 24.9995 7.29159 25.0002H17.7083C18.2606 24.9995 18.7901 24.7798 19.1807 24.3892C19.5712 23.9987 19.7909 23.4692 19.7916 22.9168V22.0054H5.20825V22.9168Z"
        />
        <path
            d="M19.7916 2.08333C19.7909 1.531 19.5712 1.00148 19.1807 0.610917C18.7901 0.220358 18.2606 0.00065473 17.7083 0L7.29159 0C6.73925 0.00065473 6.20973 0.220358 5.81917 0.610917C5.42861 1.00148 5.20891 1.531 5.20825 2.08333V3.125H19.7916V2.08333Z"
        />
        <path
            d="M24.7098 6.70052L21.5848 3.44531L20.082 4.88802L21.3894 6.25H19.7917V8.33333H21.5018L20.1127 9.66459L21.5541 11.1688L24.6791 8.17396C24.7779 8.07926 24.8571 7.96602 24.9121 7.8407C24.9672 7.71538 24.997 7.58045 24.9998 7.44361C25.0027 7.30677 24.9785 7.17071 24.9288 7.04321C24.879 6.91571 24.8046 6.79926 24.7098 6.70052Z"
        />
        <path
            d="M16.6666 6.24984H19.7916V4.1665H5.20825V16.6665H8.33325V18.7498H5.20825V20.8332H19.7916V8.33317H16.6666V6.24984ZM15.6249 10.4165H11.9791C11.841 10.4165 11.7085 10.4714 11.6108 10.5691C11.5131 10.6667 11.4583 10.7992 11.4583 10.9373C11.4583 11.0755 11.5131 11.2079 11.6108 11.3056C11.7085 11.4033 11.841 11.4582 11.9791 11.4582H13.0208C13.6666 11.4575 14.2896 11.6969 14.7688 12.1297C15.2481 12.5626 15.5494 13.1581 15.6144 13.8006C15.6793 14.4432 15.5031 15.0869 15.1201 15.6069C14.737 16.1268 14.1745 16.4859 13.5416 16.6144V17.7082H11.4583V16.6665H9.37492V14.5832H13.0208C13.1589 14.5832 13.2914 14.5283 13.389 14.4306C13.4867 14.3329 13.5416 14.2005 13.5416 14.0623C13.5416 13.9242 13.4867 13.7917 13.389 13.6941C13.2914 13.5964 13.1589 13.5415 13.0208 13.5415H11.9791C11.3333 13.5422 10.7103 13.3028 10.231 12.87C9.75173 12.4371 9.45039 11.8416 9.38549 11.1991C9.32058 10.5565 9.49674 9.91278 9.87977 9.39282C10.2628 8.87286 10.8254 8.51377 11.4583 8.38525V7.2915H13.5416V8.33317H15.6249V10.4165Z"
        />
        <path
            d="M3.49828 16.6665L4.88734 15.3352L3.44593 13.8311L0.320931 16.8258C0.222115 16.9205 0.142929 17.0338 0.0879011 17.1591C0.0328728 17.2844 0.00308028 17.4194 0.000226477 17.5562C-0.00262733 17.693 0.0215135 17.8291 0.0712692 17.9566C0.121025 18.0841 0.19542 18.2005 0.290202 18.2993L3.4152 21.5545L4.91807 20.1118L3.61064 18.7498H5.2083V16.6665H3.49828Z"
        />

    </symbol>
    <symbol id='sidebar-user' viewBox="0 0 25 25" >
        <g clip-path="url(#clip0_406_57459)">
            <path
                d="M12.3218 12.0426C13.9762 12.0426 15.4088 11.4492 16.5794 10.2785C17.7499 9.10793 18.3433 7.67571 18.3433 6.02109C18.3433 4.36705 17.7499 2.93463 16.5792 1.76372C15.4085 0.593374 13.976 0 12.3218 0C10.6672 0 9.23494 0.593374 8.0644 1.76391C6.89386 2.93444 6.30029 4.36686 6.30029 6.02109C6.30029 7.67571 6.89386 9.10813 8.06459 10.2787C9.23532 11.449 10.6677 12.0426 12.3218 12.0426Z"
                />
            <path
                d="M22.8579 19.2239C22.8241 18.7368 22.7558 18.2054 22.6553 17.6443C22.5538 17.0789 22.4232 16.5445 22.2668 16.056C22.1052 15.5512 21.8855 15.0526 21.6139 14.5748C21.332 14.0789 21.0009 13.6471 20.6293 13.2917C20.2408 12.92 19.7651 12.6211 19.215 12.4031C18.6668 12.1862 18.0593 12.0764 17.4095 12.0764C17.1543 12.0764 16.9075 12.1811 16.4309 12.4914C16.1375 12.6827 15.7944 12.904 15.4114 13.1487C15.0839 13.3573 14.6402 13.5528 14.0923 13.7298C13.5576 13.9028 13.0148 13.9906 12.479 13.9906C11.9432 13.9906 11.4006 13.9028 10.8654 13.7298C10.318 13.553 9.87434 13.3575 9.54723 13.1489C9.16786 12.9064 8.82454 12.6852 8.5268 12.4912C8.05073 12.1809 7.80373 12.0762 7.54852 12.0762C6.8985 12.0762 6.2912 12.1862 5.74322 12.4033C5.19352 12.6209 4.71764 12.9198 4.32873 13.2919C3.95737 13.6474 3.62606 14.0791 3.34454 14.5748C3.07312 15.0526 2.85339 15.551 2.69165 16.0562C2.53544 16.5447 2.40479 17.0789 2.30331 17.6443C2.2028 18.2046 2.13451 18.7362 2.10075 19.2245C2.06757 19.7029 2.05078 20.1993 2.05078 20.7008C2.05078 22.0058 2.46563 23.0623 3.28369 23.8414C4.09164 24.6103 5.16071 25.0003 6.46076 25.0003H18.4984C19.7985 25.0003 20.8672 24.6105 21.6753 23.8414C22.4936 23.0628 22.9084 22.0062 22.9084 20.7006C22.9082 20.1969 22.8912 19.7 22.8579 19.2239Z"
               />
        </g>
        <defs>
            <clipPath id="clip0_406_57459">
                <rect width="25" height="25" fill="white" />
            </clipPath>
        </defs>

    </symbol>
    <symbol id='sidebar-investment' viewBox="0 0 25 25">
        <path
            d="M3.92074 10.2271H1.1367C0.509043 10.2271 0 10.7361 0 11.3638V23.8638C0 24.4909 0.509043 24.9999 1.1367 24.9999H3.92074C4.5484 24.9999 5.05692 24.4909 5.05692 23.8638V11.3638C5.05692 10.7361 4.5484 10.2271 3.92074 10.2271Z"
        />
        <path
            d="M10.5687 13.6357H7.78465C7.15646 13.6357 6.64795 14.1448 6.64795 14.7724V23.8629C6.64795 24.4911 7.15646 24.9996 7.78465 24.9996H10.5687C11.1964 24.9996 11.7049 24.4905 11.7049 23.8629V14.7724C11.7049 14.1448 11.1964 13.6357 10.5687 13.6357Z"
        />
        <path
            d="M17.2154 13.6357H14.4313C13.8037 13.6357 13.2952 14.1448 13.2952 14.7724V23.8629C13.2952 24.4911 13.8037 24.9996 14.4313 24.9996H17.2154C17.8436 24.9996 18.3521 24.4905 18.3521 23.8629V14.7724C18.3521 14.1448 17.8436 13.6357 17.2154 13.6357Z"
        />
        <path
            d="M23.8633 10.2271H21.0793C20.4516 10.2271 19.9431 10.7361 19.9431 11.3638V23.8638C19.9431 24.4914 20.4516 24.9999 21.0793 24.9999H23.8633C24.491 24.9999 25 24.4903 25 23.8638V11.3638C25 10.7361 24.491 10.2271 23.8633 10.2271Z"
        />
        <path
            d="M12.8313 6.8457V8.89145C13.4504 8.85049 14.1031 8.56007 14.1031 7.87868C14.1031 7.17549 13.3877 6.96964 12.8313 6.8457Z"
        />
        <path
            d="M11.0522 4.39732C11.0522 4.91434 11.4368 5.21328 12.2118 5.3686V3.51807C11.5076 3.53881 11.0522 3.95264 11.0522 4.39732Z"
        />
        <path
            d="M12.5 0C9.05372 0 6.25 2.80426 6.25 6.25C6.25 9.69468 9.05372 12.4989 12.5 12.4989C15.9463 12.4989 18.75 9.69468 18.75 6.25C18.75 2.80426 15.9463 0 12.5 0ZM12.8314 9.94628V10.5862C12.8314 10.7622 12.6963 10.9378 12.5197 10.9378C12.3452 10.9378 12.2117 10.7622 12.2117 10.5862V9.94628C10.4654 9.90372 9.59681 8.86011 9.59681 8.04362C9.59681 7.63138 9.84628 7.39309 10.2367 7.39309C11.3941 7.39309 10.4941 8.81915 12.2117 8.89096V6.73138C10.6798 6.45319 9.75213 5.78138 9.75213 4.63457C9.75213 3.22979 10.9202 2.50532 12.2117 2.46489V1.91383C12.2117 1.73777 12.3452 1.56223 12.5197 1.56223C12.6963 1.56223 12.8314 1.73777 12.8314 1.91383V2.46489C13.6367 2.48617 15.2904 2.99149 15.2904 4.00479C15.2904 4.40745 14.9894 4.64468 14.6378 4.64468C13.9654 4.64468 13.975 3.53989 12.8314 3.51862V5.48191C14.1952 5.77181 15.4032 6.17447 15.4032 7.76596C15.4032 9.15 14.3702 9.85213 12.8314 9.94628Z"
        />

    </symbol>
    <symbol id='sidebar-card' viewBox="0 0 26 26" >
        <g clip-path="url(#clip0_406_57476)">
            <path
                d="M22.9608 7.16318V6.80751C22.9608 5.1725 21.6306 3.84229 19.9956 3.84229H2.96522C1.33016 3.84234 0 5.1725 0 6.80751V7.16318H22.9608Z"
                 />
            <path
                d="M13.5651 16.7015C13.5651 15.1634 14.0598 13.7014 14.9731 12.4966H0V16.6328C0 18.2678 1.33016 19.598 2.96522 19.598H14.1911C13.7813 18.7004 13.5651 17.7177 13.5651 16.7015ZM11.4804 15.8027H8.92125V14.2793H11.4804V15.8027ZM3.41545 14.2793H7.39781V15.8027H3.41545V14.2793Z"
                 />
            <path
                d="M16.5547 10.9731C17.7165 10.1602 19.0967 9.72226 20.5443 9.72226C21.3822 9.72226 22.1973 9.86937 22.9608 10.1505V8.68652H0V10.9731H16.5547Z"
                 />
            <path
                d="M26.0001 16.7013C26.0001 13.6882 23.5575 11.2456 20.5444 11.2456C17.5313 11.2456 15.0886 13.6882 15.0886 16.7013C15.0886 19.7144 17.5312 22.157 20.5444 22.157C23.5575 22.157 26.0001 19.7144 26.0001 16.7013ZM21.2798 19.6159V20.2359H20.518V20.2359V20.2359H19.7563V19.6205C19.2958 19.4645 18.919 19.1901 18.551 18.921L19.4504 17.6914C19.9447 18.0529 20.1977 18.2267 20.5444 18.2267C20.7404 18.2267 20.8991 18.1334 20.9586 17.9833C21.0306 17.8015 20.9288 17.634 20.6862 17.5352C20.6862 17.5352 19.5974 17.1721 19.094 16.6588C18.6716 16.2283 18.5373 15.6215 18.6717 15.0442C18.8071 14.4631 19.1996 14.0086 19.7563 13.7817V13.1666H21.2798V13.7562C21.6667 13.8636 21.9942 14.0224 22.1825 14.1246L21.4556 15.4635C20.9737 15.2019 20.5304 15.1234 20.3578 15.1824C20.1904 15.2396 20.165 15.3488 20.1554 15.3899C20.1418 15.4482 20.1346 15.5375 20.2277 15.6413C20.3173 15.7412 21.2606 16.1243 21.2606 16.1243C22.2783 16.5386 22.7573 17.579 22.3748 18.5444C22.1761 19.0462 21.7762 19.4262 21.2798 19.6159Z"
                 />
        </g>
        <defs>
            <clipPath id="clip0_406_57476">
                <rect width="26" height="26" fill="white" />
            </clipPath>
        </defs>
    </symbol>

    <symbol id='sidebar-setting' viewBox="0 0 25 25">
        <g clip-path="url(#clip0_406_57484)">
            <path
                d="M22.6985 9.41406H22.1678C21.9954 8.87451 21.7778 8.35039 21.5172 7.84683L21.8931 7.47095C22.8045 6.56055 22.7801 5.10156 21.8934 4.21582L20.7845 3.10693C19.8993 2.22056 18.44 2.19487 17.5293 3.10659L17.1532 3.48276C16.6496 3.22222 16.1254 3.00464 15.5859 2.83223V2.30142C15.5859 1.03242 14.5535 0 13.2845 0H11.7155C10.4465 0 9.41406 1.03242 9.41406 2.30142V2.83223C8.87456 3.00459 8.35039 3.22217 7.84683 3.48276L7.471 3.10693C6.56216 2.19702 5.10293 2.21836 4.21592 3.10664L3.10688 4.21558C2.22056 5.10093 2.19492 6.56001 3.10659 7.4707L3.48276 7.84687C3.22217 8.35044 3.00464 8.87451 2.83223 9.41411H2.30146C1.03247 9.41406 0 10.4465 0 11.7155V13.2845C0 14.5535 1.03247 15.5859 2.30146 15.5859H2.83223C3.00464 16.1255 3.22217 16.6496 3.48276 17.1532L3.10688 17.5291C2.19551 18.4395 2.21992 19.8984 3.10659 20.7842L4.21553 21.8931C5.10073 22.7794 6.56001 22.8051 7.47065 21.8934L7.84683 21.5172C8.35039 21.7778 8.87456 21.9954 9.41406 22.1678V22.6986C9.41406 23.9676 10.4465 25 11.7155 25H13.2845C14.5535 25 15.586 23.9676 15.586 22.6986V22.1678C16.1255 21.9954 16.6497 21.7778 17.1532 21.5172L17.5291 21.8931C18.4379 22.803 19.8971 22.7816 20.7841 21.8934L21.8932 20.7844C22.7795 19.899 22.8051 18.4399 21.8935 17.5292L21.5173 17.1531C21.7779 16.6495 21.9954 16.1254 22.1678 15.5858H22.6986C23.9676 15.5858 25 14.5534 25 13.2844V11.7154C25 10.4465 23.9675 9.41406 22.6985 9.41406ZM12.5 17.9395C9.50064 17.9395 7.06055 15.4993 7.06055 12.5C7.06055 9.50068 9.50064 7.06055 12.5 7.06055C15.4994 7.06055 17.9395 9.50068 17.9395 12.5C17.9395 15.4993 15.4994 17.9395 12.5 17.9395Z"
               />
        </g>
        <defs>
            <clipPath id="clip0_406_57484">
                <rect width="25" height="25" fill="white" />
            </clipPath>
        </defs>
    </symbol>
    <symbol id='planets-sun' viewBox="0 0 20 20" fill="none">
        <path fill-rule="evenodd" clip-rule="evenodd"
            d="M10.0754 1.94774C12.1472 1.94774 14.1341 2.77076 15.5991 4.23574C17.0641 5.70073 17.8871 7.68767 17.8871 9.75947C17.8871 11.8313 17.0641 13.8182 15.5991 15.2832C14.1341 16.7482 12.1472 17.5712 10.0754 17.5712C8.00359 17.5712 6.01664 16.7482 4.55166 15.2832C3.08668 13.8182 2.26366 11.8313 2.26366 9.75947C2.26366 7.68767 3.08668 5.70073 4.55166 4.23574C6.01664 2.77076 8.00359 1.94774 10.0754 1.94774ZM10.0754 7.44115C10.3817 7.42051 10.6892 7.46072 10.9799 7.55944C11.2706 7.65817 11.539 7.81347 11.7694 8.01639C11.9999 8.2193 12.1879 8.46582 12.3226 8.74174C12.4573 9.01766 12.5361 9.31751 12.5544 9.62401C12.5727 9.93051 12.5301 10.2376 12.4291 10.5276C12.3282 10.8176 12.1708 11.0847 11.9662 11.3136C11.7615 11.5425 11.5135 11.7286 11.2366 11.8612C10.9597 11.9938 10.6592 12.0702 10.3526 12.0862C9.73941 12.1181 9.1385 11.9063 8.68081 11.497C8.22312 11.0877 7.94576 10.5141 7.90918 9.90121C7.87261 9.2883 8.07978 8.68578 8.48555 8.22497C8.89131 7.76416 9.46278 7.48242 10.0754 7.44115ZM10.0754 0.1334C11.364 0.0953392 12.6471 0.316274 13.8488 0.783118C15.0504 1.24996 16.1462 1.95322 17.0711 2.85124C17.996 3.74925 18.7313 4.82376 19.2335 6.01111C19.7356 7.19846 19.9943 8.47451 19.9943 9.76367C19.9943 11.0528 19.7356 12.3289 19.2335 13.5162C18.7313 14.7036 17.996 15.7781 17.0711 16.6761C16.1462 17.5741 15.0504 18.2774 13.8488 18.7442C12.6471 19.2111 11.364 19.432 10.0754 19.3939C7.52017 19.3939 5.0696 18.3789 3.26279 16.5721C1.45598 14.7653 0.440918 12.3147 0.440918 9.75947C0.440918 7.20425 1.45598 4.75369 3.26279 2.94687C5.0696 1.14006 7.52017 0.125 10.0754 0.125"
            fill="white" />
    </symbol>
    <symbol id='planets-earth' viewBox="0 0 21 21" fill="none">
        <path fill-rule="evenodd" clip-rule="evenodd"
            d="M2.0363 9.96175H9.20126V2.80519C7.36927 3.00267 5.6596 3.8197 4.35516 5.12109C3.05071 6.42248 2.22968 8.13023 2.0279 9.96175H2.0363ZM9.19286 18.8738V11.7257H2.0279C2.22933 13.5559 3.04915 15.2627 4.35191 16.5639C5.65466 17.8651 7.36238 18.683 9.19286 18.8822V18.8738ZM18.0966 11.7257H10.9484V18.8822C12.7774 18.6812 14.4831 17.8626 15.7842 16.5615C17.0853 15.2604 17.9039 13.5547 18.105 11.7257H18.0966ZM10.9484 2.81359V9.97015H18.105C17.9039 8.14118 17.0853 6.43541 15.7842 5.13434C14.4831 3.83327 12.7774 3.01466 10.9484 2.81359ZM10.0664 0.881659C12.7096 0.804801 15.2751 1.78111 17.1985 3.5958C19.1219 5.41049 20.2456 7.91491 20.3225 10.5581C20.3993 13.2013 19.423 15.7668 17.6083 17.6902C15.7937 19.6136 13.2892 20.7373 10.646 20.8142C8.00279 20.891 5.4373 19.9147 3.51392 18.1C1.59054 16.2853 0.466816 13.7809 0.389959 11.1377C0.313102 8.49449 1.28941 5.929 3.1041 4.00562C4.91879 2.08224 7.42321 0.958516 10.0664 0.881659Z"
            fill="white" />
    </symbol>
    <symbol id='planets-northnode' viewBox="0 0 18 21" fill="none">
        <path fill-rule="evenodd" clip-rule="evenodd"
            d="M13.4261 19.3519C13.222 19.3519 13.0199 19.3117 12.8314 19.2337C12.6429 19.1556 12.4716 19.0411 12.3273 18.8968C12.183 18.7525 12.0685 18.5812 11.9904 18.3927C11.9123 18.2041 11.8721 18.0021 11.8721 17.798C11.8721 17.5939 11.9123 17.3919 11.9904 17.2033C12.0685 17.0148 12.183 16.8435 12.3273 16.6992C12.4716 16.5549 12.6429 16.4404 12.8314 16.3623C13.0199 16.2842 13.222 16.244 13.4261 16.244C13.8382 16.244 14.2335 16.4078 14.5249 16.6992C14.8163 16.9906 14.98 17.3859 14.98 17.798C14.98 18.2101 14.8163 18.6054 14.5249 18.8968C14.2335 19.1882 13.8382 19.3519 13.4261 19.3519ZM4.73238 16.244C4.93645 16.244 5.13852 16.2842 5.32705 16.3623C5.51558 16.4404 5.68689 16.5549 5.83119 16.6992C5.97548 16.8435 6.08995 17.0148 6.16804 17.2033C6.24613 17.3919 6.28633 17.5939 6.28633 17.798C6.28633 18.0021 6.24613 18.2041 6.16804 18.3927C6.08995 18.5812 5.97548 18.7525 5.83119 18.8968C5.68689 19.0411 5.51558 19.1556 5.32705 19.2337C5.13852 19.3117 4.93645 19.3519 4.73238 19.3519C4.32025 19.3519 3.925 19.1882 3.63357 18.8968C3.34215 18.6054 3.17843 18.2101 3.17843 17.798C3.17843 17.3859 3.34215 16.9906 3.63357 16.6992C3.925 16.4078 4.32025 16.244 4.73238 16.244ZM3.06924 15.1101L3.03564 15.1353C2.50193 15.4798 2.08555 15.9784 1.84172 16.565C1.59788 17.1515 1.5381 17.7984 1.67032 18.4197C1.80253 19.041 2.12048 19.6075 2.58202 20.044C3.04355 20.4804 3.62686 20.7663 4.25459 20.8637C4.88232 20.961 5.52482 20.8653 6.09689 20.5891C6.66895 20.313 7.14356 19.8694 7.45777 19.3174C7.77198 18.7653 7.91095 18.1307 7.85625 17.4978C7.80155 16.865 7.55577 16.2637 7.1515 15.7737C6.84412 15.3965 6.45681 15.0924 6.01754 14.8833C4.8651 14.285 3.9283 13.3417 3.33798 12.1852C2.74766 11.0286 2.5333 9.71659 2.72485 8.43231C2.9285 6.88981 3.68561 5.47383 4.85528 4.44785C6.02496 3.42187 7.52755 2.85578 9.08343 2.85491C10.4725 2.85656 11.822 3.31723 12.9221 4.16526C13.904 4.85761 14.6581 5.82601 15.0888 6.9476C15.5195 8.0692 15.6074 9.29345 15.3412 10.465C15.1776 11.439 14.7824 12.3593 14.189 13.1487C13.5955 13.938 12.8211 14.5732 11.9309 15.0009C11.4161 15.2574 10.9862 15.6569 10.6927 16.1515C10.3992 16.6461 10.2546 17.2149 10.2762 17.7896C10.2628 18.3636 10.4159 18.9292 10.717 19.4181C11.0181 19.907 11.4543 20.2983 11.9729 20.5447C12.6158 20.8653 13.3475 20.9609 14.0511 20.8162C14.7547 20.6715 15.3894 20.2949 15.8536 19.7467C16.1348 19.4013 16.339 18.9998 16.4523 18.5691C16.5657 18.1383 16.5857 17.6883 16.5109 17.2493C16.4361 16.8102 16.2683 16.3921 16.0188 16.0232C15.7693 15.6543 15.4437 15.3429 15.064 15.1101C16.2046 13.9304 16.9735 12.4416 17.2752 10.8287C17.5769 9.21578 17.3981 7.54975 16.761 6.03757C16.1239 4.52539 15.0566 3.23368 13.6917 2.3229C12.3268 1.41213 10.7243 0.922406 9.08343 0.914572C6.90225 0.909638 4.8061 1.76016 3.24504 3.28353C1.68398 4.8069 0.782485 6.88165 0.734118 9.06229C0.683719 11.263 1.50689 13.3881 3.06924 15.1101Z"
            fill="white" />
    </symbol>
    <symbol id='planets-southnode' viewBox="0 0 18 20" fill="none">
        <path fill-rule="evenodd" clip-rule="evenodd"
            d="M4.72407 1.56106C4.92813 1.56106 5.1302 1.60125 5.31874 1.67935C5.50727 1.75744 5.67858 1.8719 5.82287 2.0162C5.96717 2.1605 6.08163 2.3318 6.15973 2.52034C6.23782 2.70887 6.27801 2.91094 6.27801 3.11501C6.27801 3.31907 6.23782 3.52114 6.15973 3.70968C6.08163 3.89821 5.96717 4.06952 5.82287 4.21381C5.67858 4.35811 5.50727 4.47257 5.31874 4.55067C5.1302 4.62876 4.92813 4.66895 4.72407 4.66895C4.31193 4.66895 3.91668 4.50523 3.62526 4.21381C3.33384 3.92239 3.17012 3.52714 3.17012 3.11501C3.17012 2.70287 3.33384 2.30762 3.62526 2.0162C3.91668 1.72478 4.31193 1.56106 4.72407 1.56106ZM13.4178 4.66895C13.2137 4.66895 13.0116 4.62876 12.8231 4.55067C12.6346 4.47257 12.4633 4.35811 12.319 4.21381C12.1747 4.06952 12.0602 3.89821 11.9821 3.70968C11.904 3.52114 11.8638 3.31907 11.8638 3.11501C11.8638 2.91094 11.904 2.70887 11.9821 2.52034C12.0602 2.3318 12.1747 2.1605 12.319 2.0162C12.4633 1.8719 12.6346 1.75744 12.8231 1.67935C13.0116 1.60125 13.2137 1.56106 13.4178 1.56106C13.8299 1.56106 14.2252 1.72478 14.5166 2.0162C14.808 2.30762 14.9717 2.70287 14.9717 3.11501C14.9717 3.52714 14.808 3.92239 14.5166 4.21381C14.2252 4.50523 13.8299 4.66895 13.4178 4.66895ZM15.0809 5.80291L15.1145 5.77772C15.5974 5.46765 15.9858 5.03093 16.2374 4.51521C16.489 3.99948 16.5942 3.42456 16.5414 2.85316C16.4886 2.28177 16.2799 1.73584 15.938 1.27494C15.5962 0.814047 15.1343 0.455885 14.6028 0.239529C14.0714 0.023174 13.4907 -0.0430637 12.9241 0.0480426C12.3576 0.139149 11.8269 0.384099 11.3901 0.756171C10.9532 1.12824 10.6269 1.61315 10.4468 2.15798C10.2667 2.70281 10.2397 3.28664 10.3687 3.84578C10.5787 4.76975 11.1414 5.46693 12.1326 6.02971C13.2851 6.62799 14.2219 7.57128 14.8122 8.72783C15.4025 9.88437 15.6168 11.1964 15.4253 12.4807C15.2217 14.0232 14.4645 15.4392 13.2949 16.4652C12.1252 17.4911 10.6226 18.0572 9.06672 18.0581C7.67748 18.0577 6.32755 17.5969 5.22805 16.7477C4.24615 16.0554 3.49202 15.087 3.06133 13.9654C2.63064 12.8438 2.54279 11.6196 2.80893 10.448C2.97255 9.47405 3.36772 8.55369 3.96119 7.76435C4.55466 6.975 5.32906 6.33977 6.21921 5.91211C6.73401 5.65564 7.16392 5.25615 7.45741 4.76153C7.75091 4.26691 7.89553 3.69814 7.87396 3.12341C7.88628 2.54959 7.73275 1.98441 7.43177 1.4957C7.1308 1.00699 6.69519 0.615532 6.17722 0.3683C5.72584 0.144016 5.22808 0.0289275 4.72407 0.0323114C4.25951 0.0221073 3.79886 0.1191 3.37786 0.315759C2.95686 0.512419 2.58685 0.803454 2.29655 1.16627C2.01532 1.51167 1.81118 1.91319 1.69782 2.34393C1.58446 2.77467 1.5645 3.22467 1.63927 3.66375C1.71404 4.10283 1.88182 4.52086 2.13136 4.8898C2.3809 5.25874 2.70642 5.57007 3.08612 5.80291C1.94553 6.98259 1.17664 8.47135 0.874944 10.0843C0.57325 11.6972 0.75205 13.3632 1.38914 14.8754C2.02622 16.3876 3.09352 17.6793 4.45846 18.5901C5.8234 19.5009 7.42583 19.9906 9.06672 19.9984C11.2479 20.0034 13.344 19.1528 14.9051 17.6295C16.4662 16.1061 17.3677 14.0314 17.416 11.8507C17.4664 9.64998 16.6433 7.52486 15.0809 5.80291Z"
            fill="white" />
    </symbol>
    <symbol id='planets-moon' viewBox="0 0 15 20" fill="none">
        <path fill-rule="evenodd" clip-rule="evenodd"
            d="M4.78993 17.6549C4.35315 17.6549 3.93316 17.6213 3.51318 17.5541C4.85801 16.8231 5.98074 15.7428 6.76304 14.4271C7.54534 13.1114 7.95825 11.6091 7.95825 10.0784C7.95825 8.54768 7.54534 7.04534 6.76304 5.72966C5.98074 4.41397 4.85801 3.33368 3.51318 2.60263C4.5486 2.42501 5.60963 2.46442 6.62903 2.71836C7.64842 2.9723 8.60394 3.43524 9.43505 4.07782C10.2661 4.72041 10.9547 5.52864 11.4571 6.45128C11.9594 7.37393 12.2647 8.39088 12.3534 9.43767C12.4421 10.4845 12.3125 11.5383 11.9726 12.5323C11.6327 13.5264 11.09 14.439 10.379 15.2123C9.66789 15.9856 8.80393 16.6028 7.84183 17.0247C6.87974 17.4466 5.84048 17.6641 4.78993 17.6633V17.6549ZM4.78993 19.4273C3.04279 19.4273 1.41325 18.9485 0.010498 18.1169C1.68075 17.5372 3.12895 16.4516 4.15386 15.011C5.17877 13.5704 5.72949 11.8464 5.72949 10.0784C5.72949 8.31039 5.17877 6.58631 4.15386 5.14571C3.12895 3.70511 1.68075 2.61954 0.010498 2.03985C1.24774 1.30518 2.63788 0.866022 4.07264 0.756576C5.5074 0.647129 6.94806 0.870348 8.28242 1.40885C9.61679 1.94735 10.8088 2.7866 11.7657 3.86123C12.7227 4.93587 13.4186 6.21688 13.7994 7.60452C14.1801 8.99216 14.2354 10.449 13.961 11.8615C13.6865 13.274 13.0897 14.6041 12.2171 15.7482C11.3444 16.8923 10.2194 17.8195 8.92974 18.4576C7.64005 19.0958 6.22046 19.4276 4.78153 19.4273"
            fill="white" />
    </symbol>
    <symbol id='planets-mercury' viewBox="0 0 15 24" fill="none">
        <path fill-rule="evenodd" clip-rule="evenodd"
            d="M7.07478 4.36719C7.79247 4.33869 8.50853 4.45544 9.18001 4.71044C9.85148 4.96543 10.4645 5.35342 10.9824 5.85113C11.5003 6.34884 11.9123 6.94602 12.1937 7.60685C12.4752 8.26768 12.6202 8.97854 12.6202 9.69681C12.6202 10.4151 12.4752 11.1259 12.1937 11.7868C11.9123 12.4476 11.5003 13.0448 10.9824 13.5425C10.4645 14.0402 9.85148 14.4282 9.18001 14.6832C8.50853 14.9382 7.79247 15.0549 7.07478 15.0264C5.69789 14.9718 4.39558 14.3863 3.44073 13.3928C2.48588 12.3993 1.95258 11.0748 1.95258 9.69681C1.95258 8.31883 2.48588 6.99432 3.44073 6.0008C4.39558 5.00729 5.69789 4.42186 7.07478 4.36719ZM8.05754 16.6308V18.9743H12.5766V20.9398H8.05754V23.7957H6.08361V20.9398H1.57297V18.9743H6.08361V16.6308C4.8527 16.4524 3.69135 15.95 2.7186 15.175C1.74585 14.3999 0.996695 13.3802 0.547922 12.2202C0.0991481 11.0602 -0.0330982 9.80176 0.164738 8.57384C0.362575 7.34591 0.883377 6.19268 1.67376 5.23236C1.26795 4.50872 1.06187 3.69019 1.07663 2.86067C1.09139 2.03114 1.32646 1.22046 1.75776 0.511719L3.08491 1.67928C2.77507 2.41594 2.7452 3.24045 3.00092 3.9976C4.18747 3.14321 5.61262 2.6835 7.07478 2.6835C8.53693 2.6835 9.96208 3.14321 11.1486 3.9976C11.4006 3.24163 11.3754 2.41845 11.0646 1.67928L12.4002 0.511719C12.8307 1.22076 13.0652 2.03134 13.08 2.86069C13.0948 3.69004 12.8892 4.50845 12.4842 5.23236C13.2749 6.19381 13.7954 7.34837 13.9924 8.57749C14.1893 9.80662 14.0556 11.066 13.605 12.2264C13.1544 13.3868 12.403 14.4063 11.4281 15.1803C10.4532 15.9543 9.28987 16.455 8.05754 16.6308Z"
            fill="white" />
    </symbol>
    <symbol id='planets-venus' viewBox="0 0 15 22" fill="none">
        <path fill-rule="evenodd" clip-rule="evenodd"
            d="M7.07525 2.41774C7.77962 2.38628 8.48327 2.49434 9.14574 2.73572C9.80822 2.97709 10.4165 3.34702 10.9355 3.82424C11.4545 4.30146 11.8741 4.87655 12.1702 5.51647C12.4662 6.15638 12.6328 6.8485 12.6605 7.55303C12.6882 8.25757 12.5763 8.96062 12.3314 9.62179C12.0865 10.2829 11.7133 10.8892 11.2333 11.4056C10.7533 11.9221 10.1759 12.3386 9.53441 12.6312C8.89291 12.9238 8.19991 13.0867 7.49524 13.1106C6.08196 13.1585 4.7072 12.645 3.6714 11.6823C2.63561 10.7196 2.02302 9.38602 1.96752 7.97303C1.91202 6.56003 2.41813 5.18252 3.37523 4.14156C4.33232 3.1006 5.66258 2.48084 7.07525 2.41774ZM7.07525 0.695801C8.85953 0.701628 10.5757 1.38165 11.8797 2.59954C13.1837 3.81744 13.9791 5.4832 14.1066 7.26293C14.2341 9.04265 13.6842 10.8048 12.5672 12.1961C11.4501 13.5875 9.84844 14.5052 8.08322 14.7653V17.26H12.6863V19.2676H8.08322V21.7707H6.06729V19.2676H1.46424V17.2516H6.07569V14.7653C4.31046 14.5052 2.70879 13.5875 1.59173 12.1961C0.474664 10.8048 -0.0752306 9.04265 0.0522719 7.26293C0.179774 5.4832 0.975251 3.81744 2.27925 2.59954C3.58324 1.38165 5.29938 0.701628 7.08365 0.695801"
            fill="white" />
    </symbol>
    <symbol id='planets-mars' viewBox="0 0 20 21" fill="none"
    >
        <path fill-rule="evenodd" clip-rule="evenodd"
            d="M8.3948 6.35693C9.95756 6.2979 11.4798 6.86208 12.6266 7.92538C13.7733 8.98867 14.4508 10.464 14.5098 12.0267C14.5688 13.5895 14.0046 15.1117 12.9413 16.2585C11.8781 17.4053 10.4027 18.0827 8.83999 18.1417C7.27723 18.2008 5.75502 17.6366 4.60824 16.5733C3.46145 15.51 2.78403 14.0347 2.725 12.4719C2.66596 10.9092 3.23015 9.38695 4.29344 8.24017C5.35674 7.09339 6.83204 6.41597 8.3948 6.35693ZM8.3948 4.45859C10.2007 4.45859 11.8639 5.07177 13.1826 6.10494L15.7026 3.26584L14.5602 2.25787L17.0549 1.4179L19.5496 0.594727L19.0204 3.16504L18.4913 5.74375L17.3573 4.73579L14.7198 7.70089C15.7375 9.12088 16.248 10.8419 16.1694 12.5871C16.0908 14.3323 15.4276 16.0004 14.2864 17.3232C13.1452 18.6459 11.5923 19.5465 9.87741 19.88C8.16253 20.2136 6.38531 19.9607 4.8315 19.1622C3.27769 18.3636 2.03757 17.0657 1.31055 15.4771C0.583517 13.8886 0.41182 12.1017 0.823063 10.4038C1.23431 8.70588 2.20459 7.19558 3.57791 6.11575C4.95124 5.03592 6.64779 4.44929 8.3948 4.45019"
            fill="white" />
    </symbol>
    <symbol id='planets-jupiter' viewBox="0 0 17 22" fill="none">
        <path fill-rule="evenodd" clip-rule="evenodd"
            d="M16.1463 14.2358L15.9783 14.2442C15.5415 14.261 15.0712 14.2694 14.5 14.2694H12.484V8.03685H10.8041V14.2022H6.15066C7.4424 13.0587 8.31928 11.5198 8.64445 9.82553C8.96962 8.13128 8.72481 6.37705 7.9482 4.83656C6.69664 2.45104 4.06753 0.720703 1.68201 0.720703C1.44682 0.720703 1.21163 0.745902 0.984835 0.779501L0.842041 0.8047V2.37545H1.01004C4.8739 2.54344 6.83104 5.30695 7.05783 7.96126C7.17931 9.38645 6.75275 10.8043 5.86507 11.9259C5.31205 12.6751 4.58666 13.28 3.75032 13.6894C2.91399 14.0987 1.99132 14.3006 1.06043 14.2778H0.85044V16.067H10.8461V21.2496H12.5428V16.0586L14.5336 16.0502C15.0964 16.0502 15.5583 16.0502 15.9867 16.0754H16.1547L16.1463 14.2442V14.2358Z"
            fill="white" />
    </symbol>
    <symbol id='planets-saturn' viewBox="0 0 14 23" fill="none">
        <path fill-rule="evenodd" clip-rule="evenodd"
            d="M10.4773 19.6539C9.93969 18.8475 10.5949 17.8648 11.2333 17.1844C13.7952 14.4713 13.5684 12.0774 13.2072 10.8846C12.8165 9.61577 11.9632 8.54013 10.8164 7.87108C9.66973 7.20204 8.31343 6.98846 7.01659 7.27273C6.22702 7.44073 5.48785 7.77671 4.84107 8.2555V5.1896H8.28495V3.14847H4.84107V0.989746H2.79154V3.14847H0.632812V5.1896H2.79154V17.5372H4.84107V11.145C5.26105 10.5318 6.68061 8.78468 8.94013 9.29706C9.47957 9.43361 9.97507 9.70601 10.3794 10.0883C10.7838 10.4706 11.0835 10.95 11.2501 11.481C11.6532 12.8249 11.1325 14.3033 9.7465 15.7816C7.47018 18.2008 8.30175 20.0907 8.77213 20.7879C9.14856 21.3179 9.64588 21.7505 10.2229 22.05C10.7999 22.3494 11.4399 22.5071 12.09 22.5098C12.497 22.5126 12.9012 22.4415 13.2828 22.2998L12.552 20.3847C11.9808 20.6031 10.9225 20.3259 10.4773 19.6539Z"
            fill="white" />
    </symbol>
    <symbol id='planets-uranus' viewBox="0 0 17 20" fill="none">
        <path fill-rule="evenodd" clip-rule="evenodd"
            d="M9.93178 16.2424C9.93178 16.4862 9.88376 16.7276 9.79047 16.9528C9.69718 17.178 9.56045 17.3827 9.38807 17.5551C9.21569 17.7274 9.01105 17.8642 8.78583 17.9575C8.56061 18.0508 8.31922 18.0988 8.07544 18.0988C7.83166 18.0988 7.59027 18.0508 7.36505 17.9575C7.13983 17.8642 6.93519 17.7274 6.76281 17.5551C6.59044 17.3827 6.4537 17.178 6.36041 16.9528C6.26712 16.7276 6.21911 16.4862 6.21911 16.2424C6.21911 15.7501 6.41468 15.2779 6.76281 14.9298C7.11094 14.5817 7.58311 14.3861 8.07544 14.3861C8.56777 14.3861 9.03994 14.5817 9.38807 14.9298C9.7362 15.2779 9.93178 15.7501 9.93178 16.2424ZM16.1392 2.4921V0.509766C13.3505 0.509766 11.0489 2.98768 10.6458 6.19637H9.06661V1.92932H7.08428V6.19637H5.50513C5.10194 2.98768 2.80042 0.509766 0.0117188 0.509766V2.4921C1.98565 2.4921 3.5984 4.59203 3.5984 7.18754C3.5984 9.77465 1.98565 11.883 0.0117188 11.883V13.8569C2.80042 13.8569 5.10194 11.3874 5.50513 8.1787H7.08428V12.6306C6.20734 12.8706 5.44728 13.4206 4.9452 14.1786C4.44312 14.9366 4.23313 15.851 4.35422 16.7521C4.4753 17.6532 4.91923 18.4797 5.60359 19.0783C6.28796 19.6768 7.16626 20.0067 8.07544 20.0067C8.98463 20.0067 9.86293 19.6768 10.5473 19.0783C11.2317 18.4797 11.6756 17.6532 11.7967 16.7521C11.9178 15.851 11.7078 14.9366 11.2057 14.1786C10.7036 13.4206 9.94354 12.8706 9.06661 12.6306V8.1787H10.6458C11.0489 11.3874 13.3505 13.8569 16.1392 13.8569V11.883C14.1652 11.883 12.5609 9.78305 12.5609 7.17914C12.5609 4.60043 14.1568 2.4921 16.1392 2.4921Z"
            fill="white" />
    </symbol>
    <symbol id='planets-neptune' viewBox="0 0 22 22" fill="none">
        <path fill-rule="evenodd" clip-rule="evenodd"
            d="M0.650879 6.58289V6.41489L3.82597 3.53379L7.03466 6.51569L6.05189 7.63285L4.79194 6.57449C4.85073 10.2872 7.16066 12.8071 10.3861 12.7063V3.97058L9.07579 5.08774L8.21062 4.12177L11.2177 0.955078H11.3857L14.4432 4.01257L13.4184 5.07934L12.2173 4.05457V12.6979C15.216 12.9163 17.9879 10.262 17.7023 6.63328L16.5767 7.62445L15.5856 6.51569L18.7943 3.53379L21.9526 6.40649V6.58289L20.8774 7.61605L20.3146 7.10367L19.6174 6.51569C19.315 11.2867 16.8959 14.0166 12.2257 14.5458V16.8557H14.1408V18.4853L12.0913 18.5777V21.8956H10.5121V18.5777L8.47941 18.4769V16.8389H10.4029V14.529C5.64031 14.0502 3.35559 11.2027 2.9776 6.52409L1.74284 7.61605L0.650879 6.58289Z"
            fill="white" />
    </symbol>
    <symbol id='planets-pluto' viewBox="0 0 12 18" fill="none">
        <path fill-rule="evenodd" clip-rule="evenodd"
            d="M2.00894 8.28727H5.87281C7.15797 8.28727 8.05674 8.01848 8.60272 7.4725C9.1319 6.92652 9.40069 6.15374 9.40069 5.17098C9.40069 4.4486 9.2495 3.83542 8.93031 3.32304C8.61112 2.81906 8.19953 2.48307 7.67875 2.31508C7.07139 2.18845 6.45068 2.13766 5.83081 2.16388H2.00894V8.29567V8.28727ZM0.0266113 17.275V0.147949H5.67122C6.66239 0.147949 7.41836 0.198348 7.93914 0.307544C8.6107 0.41981 9.24489 0.693666 9.78708 1.10552C10.3163 1.5507 10.7362 2.11348 10.9882 2.76026C11.2998 3.499 11.457 4.29365 11.4502 5.09538C11.4502 6.55693 11.0386 7.78329 10.2323 8.79966C9.42589 9.80762 7.96434 10.3116 5.84761 10.3116H2.00894V15.6034H11.4502V17.2834H0.0266113V17.275Z"
            fill="white" />
    </symbol>
    <symbol id='up-pink' viewBox="0 0 9 8" fill="none">
        <path d="M0.821045 7.60654L4.9369 0.550781L8.96877 7.60654H0.821045Z"
            fill="url(#paint0_linear_406_57883)" />
        <defs>
            <linearGradient id="paint0_linear_406_57883" x1="2.31237" y1="8.4246" x2="2.31237"
                y2="2.13577" gradientUnits="userSpaceOnUse">
                <stop stop-color="#EC008C" />
                <stop offset="1" stop-color="#FC6767" />
            </linearGradient>
        </defs>
    </symbol>
    <symbol id='up-yellow' viewBox="0 0 9 8" fill="none">
        <path d="M0.734375 7.43076L4.85023 0.375L8.8821 7.43076H0.734375Z"
            fill="url(#paint0_linear_406_57937)" />
        <defs>
            <linearGradient id="paint0_linear_406_57937" x1="4.979" y1="-6.08594" x2="1.56468"
                y2="6.5613" gradientUnits="userSpaceOnUse">
                <stop stop-color="#FFD079" />
                <stop offset="0.510417" stop-color="#FFE8BF" />
                <stop offset="1" stop-color="#FFD079" />
            </linearGradient>
        </defs>
    </symbol>

    <symbol id='star-pink' viewBox="0 0 9 10" fill="none">
        <path
            d="M8.14772 1.93193H5.20782L4.11586 0L2.9399 1.93193H0L1.51195 4.53585L0 7.13976H2.9399L4.11586 9.07169L5.20782 7.13976H8.14772L6.71977 4.53585L8.14772 1.93193Z"
            fill="url(#paint0_linear_406_57930)" />
        <defs>
            <linearGradient id="paint0_linear_406_57930" x1="1.49132" y1="10.1235" x2="1.49132"
                y2="2.03784" gradientUnits="userSpaceOnUse">
                <stop stop-color="#EC008C" />
                <stop offset="1" stop-color="#FC6767" />
            </linearGradient>
        </defs>
    </symbol>
    <symbol id='down-yellow' viewBox="0 0 9 8" fill="none">
        <path d="M8.8821 0.0791016L4.85023 7.13486L0.734375 0.0791016H8.8821Z"
            fill="url(#paint0_linear_406_57996)" />
        <defs>
            <linearGradient id="paint0_linear_406_57996" x1="4.979" y1="-6.38184" x2="1.56468"
                y2="6.2654" gradientUnits="userSpaceOnUse">
                <stop stop-color="#FFD079" />
                <stop offset="0.510417" stop-color="#FFE8BF" />
                <stop offset="1" stop-color="#FFD079" />
            </linearGradient>
        </defs>
    </symbol>
    <symbol id='star-red' viewBox="0 0 25 24" fill="none">
        <path
            d="M12.5 20.0993L18.5623 23.7824C19.6725 24.4574 21.0311 23.4595 20.7389 22.1976L19.132 15.2716L24.4932 10.6054C25.4719 9.75433 24.946 8.14023 23.6605 8.03751L16.6048 7.43589L13.8439 0.891426C13.3473 -0.297142 11.6527 -0.297142 11.1561 0.891426L8.39515 7.42122L1.33949 8.02284C0.0539875 8.12555 -0.471901 9.73966 0.506835 10.5907L5.86797 15.257L4.26109 22.1829C3.96893 23.4449 5.32747 24.4427 6.43768 23.7677L12.5 20.0993Z"
            fill="url(#paint0_linear_406_58520)" />
        <defs>
            <linearGradient id="paint0_linear_406_58520" x1="0" y1="12" x2="25" y2="12"
                gradientUnits="userSpaceOnUse">
                <stop stop-color="#E52D27" />
                <stop offset="1" stop-color="#FFD992" />
            </linearGradient>
        </defs>
    </symbol>
    <symbol id='star-green' viewBox="0 0 25 24" fill="none">
        <path
            d="M12.5 20.0993L18.5623 23.7824C19.6725 24.4574 21.0311 23.4595 20.7389 22.1976L19.132 15.2716L24.4932 10.6054C25.4719 9.75433 24.946 8.14023 23.6605 8.03751L16.6048 7.43589L13.8439 0.891426C13.3473 -0.297142 11.6527 -0.297142 11.1561 0.891426L8.39515 7.42122L1.33949 8.02284C0.0539875 8.12555 -0.471901 9.73966 0.506835 10.5907L5.86797 15.257L4.26109 22.1829C3.96893 23.4449 5.32747 24.4427 6.43768 23.7677L12.5 20.0993Z"
            fill="url(#paint0_linear_406_58491)" />
        <defs>
            <linearGradient id="paint0_linear_406_58491" x1="0" y1="12" x2="25" y2="12"
                gradientUnits="userSpaceOnUse">
                <stop stop-color="#FFD992" />
                <stop offset="1" stop-color="#38EF7D" />
            </linearGradient>
        </defs>
    </symbol>


</svg>