<svg width="74" height="74" viewBox="0 0 74 74" fill="none" xmlns="http://www.w3.org/2000/svg">
<path d="M36.6883 73.6148C31.8943 73.6148 27.1474 72.6706 22.7183 70.836C18.2893 69.0015 14.265 66.3125 10.8752 62.9227C7.4854 59.5329 4.79645 55.5086 2.9619 51.0796C1.12734 46.6506 0.183105 41.9036 0.183105 37.1096C0.183105 32.3157 1.12734 27.5687 2.9619 23.1397C4.79645 18.7107 7.4854 14.6864 10.8752 11.2966C14.265 7.90679 18.2893 5.21784 22.7183 3.38328C27.1474 1.54873 31.8943 0.604492 36.6883 0.604492C46.37 0.604492 55.6553 4.45056 62.5013 11.2966C69.3474 18.1426 73.1934 27.4279 73.1934 37.1096C73.1934 46.7914 69.3474 56.0766 62.5013 62.9227C55.6553 69.7687 46.37 73.6148 36.6883 73.6148Z" fill="url(#paint0_linear_406_58078)"/>
<defs>
<linearGradient id="paint0_linear_406_58078" x1="0.183105" y1="37.1096" x2="73.1934" y2="37.1096" gradientUnits="userSpaceOnUse">
<stop stop-color="#FFE259"/>
<stop offset="1" stop-color="#FFA751"/>
</linearGradient>
</defs>
</svg>
