<svg width="77" height="69" viewBox="0 0 77 69" fill="none" xmlns="http://www.w3.org/2000/svg">
<path d="M59.8729 3.52704C59.3184 2.56489 58.5203 1.76569 57.5589 1.2098C56.5976 0.65392 55.5068 0.36095 54.3963 0.360352H22.6874C21.5756 0.360327 20.4834 0.652957 19.5206 1.20883C18.5578 1.7647 17.7582 2.56423 17.2024 3.52704L1.3521 31.0277C0.797048 31.9908 0.504883 33.0828 0.504883 34.1944C0.504883 35.306 0.797048 36.398 1.3521 37.3611L17.2024 64.8618C17.7572 65.8261 18.5562 66.6273 19.5191 67.1847C20.482 67.7421 21.5748 68.036 22.6874 68.0368H54.3963C55.5068 68.0362 56.5976 67.7433 57.5589 67.1874C58.5203 66.6315 59.3184 65.8323 59.8729 64.8702L75.7316 37.3695C76.2858 36.4061 76.5775 35.3142 76.5775 34.2028C76.5775 33.0914 76.2858 31.9995 75.7316 31.0361L59.8729 3.52704Z" fill="white"/>
</svg>
